G04*
G04 #@! TF.GenerationSoftware,Altium Limited,Altium Designer,22.1.2 (22)*
G04*
G04 Layer_Color=8421504*
%FSLAX44Y44*%
%MOMM*%
G71*
G04*
G04 #@! TF.SameCoordinates,873FB45C-190C-4682-B26A-08C162FF856E*
G04*
G04*
G04 #@! TF.FilePolarity,Positive*
G04*
G01*
G75*
%ADD15R,0.8000X0.8000*%
%ADD16R,0.7900X0.9300*%
G04:AMPARAMS|DCode=17|XSize=0.54mm|YSize=0.6mm|CornerRadius=0.1431mm|HoleSize=0mm|Usage=FLASHONLY|Rotation=90.000|XOffset=0mm|YOffset=0mm|HoleType=Round|Shape=RoundedRectangle|*
%AMROUNDEDRECTD17*
21,1,0.5400,0.3138,0,0,90.0*
21,1,0.2538,0.6000,0,0,90.0*
1,1,0.2862,0.1569,0.1269*
1,1,0.2862,0.1569,-0.1269*
1,1,0.2862,-0.1569,-0.1269*
1,1,0.2862,-0.1569,0.1269*
%
%ADD17ROUNDEDRECTD17*%
%ADD18R,0.5400X0.6000*%
%ADD19R,0.9779X0.5588*%
G04:AMPARAMS|DCode=20|XSize=1.1mm|YSize=1mm|CornerRadius=0.265mm|HoleSize=0mm|Usage=FLASHONLY|Rotation=180.000|XOffset=0mm|YOffset=0mm|HoleType=Round|Shape=RoundedRectangle|*
%AMROUNDEDRECTD20*
21,1,1.1000,0.4700,0,0,180.0*
21,1,0.5700,1.0000,0,0,180.0*
1,1,0.5300,-0.2850,0.2350*
1,1,0.5300,0.2850,0.2350*
1,1,0.5300,0.2850,-0.2350*
1,1,0.5300,-0.2850,-0.2350*
%
%ADD20ROUNDEDRECTD20*%
G04:AMPARAMS|DCode=21|XSize=1.1mm|YSize=1mm|CornerRadius=0.265mm|HoleSize=0mm|Usage=FLASHONLY|Rotation=270.000|XOffset=0mm|YOffset=0mm|HoleType=Round|Shape=RoundedRectangle|*
%AMROUNDEDRECTD21*
21,1,1.1000,0.4700,0,0,270.0*
21,1,0.5700,1.0000,0,0,270.0*
1,1,0.5300,-0.2350,-0.2850*
1,1,0.5300,-0.2350,0.2850*
1,1,0.5300,0.2350,0.2850*
1,1,0.5300,0.2350,-0.2850*
%
%ADD21ROUNDEDRECTD21*%
G04:AMPARAMS|DCode=22|XSize=0.54mm|YSize=0.6mm|CornerRadius=0.1431mm|HoleSize=0mm|Usage=FLASHONLY|Rotation=0.000|XOffset=0mm|YOffset=0mm|HoleType=Round|Shape=RoundedRectangle|*
%AMROUNDEDRECTD22*
21,1,0.5400,0.3138,0,0,0.0*
21,1,0.2538,0.6000,0,0,0.0*
1,1,0.2862,0.1269,-0.1569*
1,1,0.2862,-0.1269,-0.1569*
1,1,0.2862,-0.1269,0.1569*
1,1,0.2862,0.1269,0.1569*
%
%ADD22ROUNDEDRECTD22*%
%ADD23O,0.2500X0.8000*%
%ADD24O,0.8000X0.2500*%
%ADD25R,0.6000X0.5400*%
%ADD26R,1.3970X0.9398*%
%ADD27R,2.6000X2.6000*%
%ADD28R,0.3000X0.6000*%
%ADD29R,0.6000X0.3000*%
%ADD30R,3.4500X3.4500*%
%ADD31R,3.6000X1.2700*%
%ADD32R,4.2000X1.3500*%
%ADD33R,0.8000X1.2000*%
%ADD34R,0.7112X0.5588*%
%ADD35R,0.4918X1.1064*%
%ADD36R,1.0000X1.5000*%
%ADD37R,1.1500X0.6000*%
%ADD38R,1.1500X0.3000*%
D15*
X330000Y170000D02*
D03*
Y185000D02*
D03*
X207500D02*
D03*
Y170000D02*
D03*
X187500D02*
D03*
Y185000D02*
D03*
D16*
X299300D02*
D03*
X315700D02*
D03*
X151800D02*
D03*
X168200D02*
D03*
X247500D02*
D03*
X231100D02*
D03*
D17*
X262500Y18200D02*
D03*
Y26800D02*
D03*
X65000Y36300D02*
D03*
Y27700D02*
D03*
X322500Y26700D02*
D03*
Y35300D02*
D03*
X279000Y138300D02*
D03*
Y129700D02*
D03*
X247500Y155700D02*
D03*
Y164300D02*
D03*
X232500D02*
D03*
Y155700D02*
D03*
X215000Y149300D02*
D03*
Y140700D02*
D03*
X332000Y143300D02*
D03*
Y134700D02*
D03*
D18*
X302232Y49000D02*
D03*
X293592D02*
D03*
D19*
X153652Y75500D02*
D03*
Y85000D02*
D03*
Y94500D02*
D03*
X126348D02*
D03*
Y85000D02*
D03*
Y75500D02*
D03*
D20*
X299500Y161000D02*
D03*
X282500D02*
D03*
X113500Y152500D02*
D03*
X96500D02*
D03*
D21*
X168000Y145500D02*
D03*
Y128500D02*
D03*
D22*
X420700Y120000D02*
D03*
X429300D02*
D03*
X420700Y137500D02*
D03*
X429300D02*
D03*
X405300Y49000D02*
D03*
X396700D02*
D03*
Y62000D02*
D03*
X405300D02*
D03*
X200300Y67000D02*
D03*
X191700D02*
D03*
X265000Y67500D02*
D03*
X273600D02*
D03*
X289700Y136000D02*
D03*
X298300D02*
D03*
D23*
X295000Y81000D02*
D03*
X290000D02*
D03*
X285000D02*
D03*
X280000D02*
D03*
X300000D02*
D03*
Y119000D02*
D03*
X290000D02*
D03*
X295000D02*
D03*
X280000D02*
D03*
X285000D02*
D03*
D24*
X271000Y90000D02*
D03*
Y95000D02*
D03*
X309000D02*
D03*
Y90000D02*
D03*
Y100000D02*
D03*
Y105000D02*
D03*
Y110000D02*
D03*
X271000Y100000D02*
D03*
Y105000D02*
D03*
Y110000D02*
D03*
D25*
X316000Y144320D02*
D03*
Y135680D02*
D03*
X270000Y155680D02*
D03*
Y164320D02*
D03*
X95000Y113180D02*
D03*
Y121820D02*
D03*
X92500Y81820D02*
D03*
Y73180D02*
D03*
D26*
X302993Y17750D02*
D03*
Y34250D02*
D03*
X276831D02*
D03*
Y17750D02*
D03*
D27*
X290000Y100000D02*
D03*
D28*
X235000Y126000D02*
D03*
X230000D02*
D03*
X225000D02*
D03*
X220000D02*
D03*
X215000D02*
D03*
X210000D02*
D03*
X205000D02*
D03*
X200000D02*
D03*
Y79000D02*
D03*
X205000D02*
D03*
X210000D02*
D03*
X215000D02*
D03*
X220000D02*
D03*
X225000D02*
D03*
X230000D02*
D03*
X235000D02*
D03*
D29*
X241000Y85000D02*
D03*
Y90000D02*
D03*
Y95000D02*
D03*
Y100000D02*
D03*
Y105000D02*
D03*
Y110000D02*
D03*
Y115000D02*
D03*
Y120000D02*
D03*
X194000D02*
D03*
Y115000D02*
D03*
Y110000D02*
D03*
Y105000D02*
D03*
Y100000D02*
D03*
Y95000D02*
D03*
Y90000D02*
D03*
Y85000D02*
D03*
D30*
X217500Y102500D02*
D03*
D31*
X483400Y100000D02*
D03*
D32*
X481400Y128250D02*
D03*
Y71750D02*
D03*
D33*
X106500Y180000D02*
D03*
X88500D02*
D03*
D34*
X394586Y120000D02*
D03*
X405000D02*
D03*
X394793Y100000D02*
D03*
X405207D02*
D03*
X394793Y82500D02*
D03*
X405207D02*
D03*
D35*
X140000Y151938D02*
D03*
X149500Y128062D02*
D03*
X130500D02*
D03*
D36*
X63500Y180000D02*
D03*
X41500D02*
D03*
D37*
X64250Y68000D02*
D03*
Y132000D02*
D03*
Y124000D02*
D03*
Y76000D02*
D03*
D38*
Y82500D02*
D03*
Y87500D02*
D03*
Y92500D02*
D03*
Y97500D02*
D03*
Y102500D02*
D03*
Y107500D02*
D03*
Y112500D02*
D03*
Y117500D02*
D03*
M02*
