G04*
G04 #@! TF.GenerationSoftware,Altium Limited,Altium Designer,22.1.2 (22)*
G04*
G04 Layer_Physical_Order=2*
G04 Layer_Color=36540*
%FSLAX44Y44*%
%MOMM*%
G71*
G04*
G04 #@! TF.SameCoordinates,873FB45C-190C-4682-B26A-08C162FF856E*
G04*
G04*
G04 #@! TF.FilePolarity,Positive*
G04*
G01*
G75*
%ADD49C,1.3970*%
G04:AMPARAMS|DCode=50|XSize=1mm|YSize=2.2mm|CornerRadius=0.5mm|HoleSize=0mm|Usage=FLASHONLY|Rotation=270.000|XOffset=0mm|YOffset=0mm|HoleType=Round|Shape=RoundedRectangle|*
%AMROUNDEDRECTD50*
21,1,1.0000,1.2000,0,0,270.0*
21,1,0.0000,2.2000,0,0,270.0*
1,1,1.0000,-0.6000,0.0000*
1,1,1.0000,-0.6000,0.0000*
1,1,1.0000,0.6000,0.0000*
1,1,1.0000,0.6000,0.0000*
%
%ADD50ROUNDEDRECTD50*%
G04:AMPARAMS|DCode=51|XSize=1mm|YSize=1.8mm|CornerRadius=0.5mm|HoleSize=0mm|Usage=FLASHONLY|Rotation=270.000|XOffset=0mm|YOffset=0mm|HoleType=Round|Shape=RoundedRectangle|*
%AMROUNDEDRECTD51*
21,1,1.0000,0.8000,0,0,270.0*
21,1,0.0000,1.8000,0,0,270.0*
1,1,1.0000,-0.4000,0.0000*
1,1,1.0000,-0.4000,0.0000*
1,1,1.0000,0.4000,0.0000*
1,1,1.0000,0.4000,0.0000*
%
%ADD51ROUNDEDRECTD51*%
%ADD54C,0.5000*%
%ADD57C,0.4500*%
%ADD58C,0.5000*%
G36*
X500000Y0D02*
X342000D01*
Y62000D01*
X306000D01*
Y88000D01*
X290000D01*
Y62000D01*
X256194D01*
X256145Y63250D01*
X257707Y63897D01*
X258903Y65093D01*
X259550Y66655D01*
Y68345D01*
X258903Y69907D01*
X257707Y71103D01*
X256145Y71750D01*
X254455D01*
X252893Y71103D01*
X251697Y69907D01*
X251050Y68345D01*
Y66655D01*
X251697Y65093D01*
X252893Y63897D01*
X254455Y63250D01*
X254406Y62000D01*
X238000D01*
Y0D01*
X0D01*
Y200000D01*
X500000D01*
Y0D01*
D02*
G37*
G36*
X302000Y59000D02*
X337000D01*
Y0D01*
X243000D01*
Y59000D01*
X293000D01*
Y86000D01*
X302000D01*
Y59000D01*
D02*
G37*
%LPC*%
G36*
X282845Y179250D02*
X281155D01*
X279593Y178603D01*
X278397Y177407D01*
X277750Y175845D01*
Y174155D01*
X278397Y172593D01*
X279593Y171397D01*
X281155Y170750D01*
X282845D01*
X284407Y171397D01*
X285603Y172593D01*
X286250Y174155D01*
Y175845D01*
X285603Y177407D01*
X284407Y178603D01*
X282845Y179250D01*
D02*
G37*
G36*
X318345Y174250D02*
X316655D01*
X315093Y173603D01*
X313897Y172407D01*
X313250Y170845D01*
Y169155D01*
X313897Y167593D01*
X315093Y166397D01*
X316655Y165750D01*
X318345D01*
X319907Y166397D01*
X321103Y167593D01*
X321750Y169155D01*
Y170845D01*
X321103Y172407D01*
X319907Y173603D01*
X318345Y174250D01*
D02*
G37*
G36*
X258845Y160250D02*
X257155D01*
X255593Y159603D01*
X254397Y158407D01*
X253750Y156845D01*
Y155155D01*
X254397Y153593D01*
X255593Y152397D01*
X257155Y151750D01*
X258845D01*
X260407Y152397D01*
X261603Y153593D01*
X262250Y155155D01*
Y156845D01*
X261603Y158407D01*
X260407Y159603D01*
X258845Y160250D01*
D02*
G37*
G36*
X225845Y149250D02*
X224155D01*
X222593Y148603D01*
X221397Y147407D01*
X220750Y145845D01*
Y144155D01*
X221397Y142593D01*
X222593Y141397D01*
X224155Y140750D01*
X225845D01*
X227407Y141397D01*
X228603Y142593D01*
X229250Y144155D01*
Y145845D01*
X228603Y147407D01*
X227407Y148603D01*
X225845Y149250D01*
D02*
G37*
G36*
X206845Y144250D02*
X205155D01*
X203593Y143603D01*
X202397Y142407D01*
X201750Y140845D01*
Y139155D01*
X202397Y137593D01*
X203593Y136397D01*
X205155Y135750D01*
X206845D01*
X208407Y136397D01*
X209603Y137593D01*
X210250Y139155D01*
Y140845D01*
X209603Y142407D01*
X208407Y143603D01*
X206845Y144250D01*
D02*
G37*
G36*
X344845Y139250D02*
X343155D01*
X341593Y138603D01*
X340397Y137407D01*
X339750Y135845D01*
Y134155D01*
X340397Y132593D01*
X341593Y131397D01*
X343155Y130750D01*
X344845D01*
X346407Y131397D01*
X347603Y132593D01*
X348250Y134155D01*
Y135845D01*
X347603Y137407D01*
X346407Y138603D01*
X344845Y139250D01*
D02*
G37*
G36*
X178845Y136250D02*
X177155D01*
X175593Y135603D01*
X174397Y134407D01*
X173750Y132845D01*
Y131155D01*
X174397Y129593D01*
X175490Y128500D01*
X174397Y127407D01*
X173750Y125845D01*
Y124155D01*
X174397Y122593D01*
X175009Y121981D01*
X174485Y120708D01*
X174000Y120543D01*
X173192Y120818D01*
X172407Y121603D01*
X170845Y122250D01*
X169155D01*
X167593Y121603D01*
X166397Y120407D01*
X165750Y118845D01*
Y117155D01*
X166397Y115593D01*
X167593Y114397D01*
X169155Y113750D01*
X170845D01*
X172407Y114397D01*
X173192Y115182D01*
X174000Y115457D01*
X174807Y115182D01*
X175593Y114397D01*
X177155Y113750D01*
X178845D01*
X180407Y114397D01*
X181603Y115593D01*
X182250Y117155D01*
Y117664D01*
X183520Y118513D01*
X184155Y118250D01*
X185845D01*
X187407Y118897D01*
X188603Y120093D01*
X189250Y121655D01*
Y123345D01*
X188603Y124907D01*
X187407Y126103D01*
X185845Y126750D01*
X184155D01*
X182593Y126103D01*
X181760Y127028D01*
X181603Y127407D01*
X180510Y128500D01*
X181603Y129593D01*
X182250Y131155D01*
Y132845D01*
X181603Y134407D01*
X180407Y135603D01*
X178845Y136250D01*
D02*
G37*
G36*
X400936Y124833D02*
X398650D01*
X397870Y124678D01*
X397208Y124236D01*
X396766Y123574D01*
X396611Y122794D01*
Y117206D01*
X396766Y116426D01*
X397208Y115764D01*
X397870Y115322D01*
X398650Y115167D01*
X400936D01*
X401716Y115322D01*
X402378Y115764D01*
X402820Y116426D01*
X402975Y117206D01*
Y122794D01*
X402820Y123574D01*
X402378Y124236D01*
X401716Y124678D01*
X400936Y124833D01*
D02*
G37*
G36*
X81845Y123250D02*
X80155D01*
X78593Y122603D01*
X77397Y121407D01*
X76750Y119845D01*
Y118155D01*
X77397Y116593D01*
X78593Y115397D01*
X80155Y114750D01*
X81845D01*
X83407Y115397D01*
X84603Y116593D01*
X85250Y118155D01*
Y119845D01*
X84603Y121407D01*
X83407Y122603D01*
X81845Y123250D01*
D02*
G37*
G36*
X160845Y122250D02*
X159155D01*
X157593Y121603D01*
X156397Y120407D01*
X155750Y118845D01*
Y117155D01*
X156397Y115593D01*
X157593Y114397D01*
X159155Y113750D01*
X160845D01*
X162407Y114397D01*
X163603Y115593D01*
X164250Y117155D01*
Y118845D01*
X163603Y120407D01*
X162407Y121603D01*
X160845Y122250D01*
D02*
G37*
G36*
X150845D02*
X149155D01*
X147593Y121603D01*
X146397Y120407D01*
X145750Y118845D01*
Y117155D01*
X146397Y115593D01*
X147593Y114397D01*
X149155Y113750D01*
X150845D01*
X152407Y114397D01*
X153603Y115593D01*
X154250Y117155D01*
Y118845D01*
X153603Y120407D01*
X152407Y121603D01*
X150845Y122250D01*
D02*
G37*
G36*
X401143Y104833D02*
X398857D01*
X398077Y104678D01*
X397415Y104236D01*
X396973Y103574D01*
X396818Y102794D01*
Y97206D01*
X396973Y96426D01*
X397415Y95764D01*
X398077Y95322D01*
X398857Y95167D01*
X401143D01*
X401923Y95322D01*
X402585Y95764D01*
X403027Y96426D01*
X403182Y97206D01*
Y102794D01*
X403027Y103574D01*
X402585Y104236D01*
X401923Y104678D01*
X401143Y104833D01*
D02*
G37*
G36*
X260845Y102310D02*
X259155D01*
X257593Y101663D01*
X256397Y100467D01*
X255750Y98905D01*
Y97215D01*
X256397Y95653D01*
X257593Y94457D01*
X259155Y93810D01*
X260845D01*
X262407Y94457D01*
X263603Y95653D01*
X264250Y97215D01*
Y98905D01*
X263603Y100467D01*
X262407Y101663D01*
X260845Y102310D01*
D02*
G37*
G36*
X118845Y89250D02*
X117155D01*
X115593Y88603D01*
X114397Y87407D01*
X113750Y85845D01*
Y84155D01*
X114397Y82593D01*
X115593Y81397D01*
X117155Y80750D01*
X118845D01*
X120407Y81397D01*
X121603Y82593D01*
X122250Y84155D01*
Y85845D01*
X121603Y87407D01*
X120407Y88603D01*
X118845Y89250D01*
D02*
G37*
G36*
X258706Y86469D02*
X257015D01*
X255453Y85822D01*
X254258Y84626D01*
X253610Y83064D01*
Y81374D01*
X254258Y79812D01*
X255453Y78616D01*
X257015Y77969D01*
X258706D01*
X260268Y78616D01*
X261464Y79812D01*
X262111Y81374D01*
Y83064D01*
X261464Y84626D01*
X260268Y85822D01*
X258706Y86469D01*
D02*
G37*
G36*
X401143Y87333D02*
X398857D01*
X398077Y87178D01*
X397415Y86736D01*
X396973Y86074D01*
X396818Y85294D01*
Y79706D01*
X396973Y78926D01*
X397415Y78264D01*
X398077Y77822D01*
X398857Y77667D01*
X401143D01*
X401923Y77822D01*
X402585Y78264D01*
X403027Y78926D01*
X403182Y79706D01*
Y85294D01*
X403027Y86074D01*
X402585Y86736D01*
X401923Y87178D01*
X401143Y87333D01*
D02*
G37*
G36*
X211845Y71250D02*
X210155D01*
X208593Y70603D01*
X207397Y69407D01*
X206750Y67845D01*
Y66155D01*
X207397Y64593D01*
X208593Y63397D01*
X210155Y62750D01*
X211845D01*
X213407Y63397D01*
X214603Y64593D01*
X215250Y66155D01*
Y67845D01*
X214603Y69407D01*
X213407Y70603D01*
X211845Y71250D01*
D02*
G37*
G36*
X196983Y36485D02*
X194617D01*
X192332Y35873D01*
X190283Y34690D01*
X188610Y33017D01*
X187427Y30968D01*
X186815Y28683D01*
Y26317D01*
X187427Y24032D01*
X188610Y21983D01*
X190283Y20310D01*
X192332Y19127D01*
X194617Y18515D01*
X196983D01*
X199268Y19127D01*
X201317Y20310D01*
X202990Y21983D01*
X204173Y24032D01*
X204785Y26317D01*
Y28683D01*
X204173Y30968D01*
X202990Y33017D01*
X201317Y34690D01*
X199268Y35873D01*
X196983Y36485D01*
D02*
G37*
G36*
X171583D02*
X169217D01*
X166932Y35873D01*
X164883Y34690D01*
X163210Y33017D01*
X162027Y30968D01*
X161415Y28683D01*
Y26317D01*
X162027Y24032D01*
X163210Y21983D01*
X164883Y20310D01*
X166932Y19127D01*
X169217Y18515D01*
X171583D01*
X173868Y19127D01*
X175917Y20310D01*
X177590Y21983D01*
X178773Y24032D01*
X179385Y26317D01*
Y28683D01*
X178773Y30968D01*
X177590Y33017D01*
X175917Y34690D01*
X173868Y35873D01*
X171583Y36485D01*
D02*
G37*
G36*
X146183D02*
X143817D01*
X141532Y35873D01*
X139483Y34690D01*
X137810Y33017D01*
X136627Y30968D01*
X136015Y28683D01*
Y26317D01*
X136627Y24032D01*
X137810Y21983D01*
X139483Y20310D01*
X141532Y19127D01*
X143817Y18515D01*
X146183D01*
X148468Y19127D01*
X150517Y20310D01*
X152190Y21983D01*
X153373Y24032D01*
X153985Y26317D01*
Y28683D01*
X153373Y30968D01*
X152190Y33017D01*
X150517Y34690D01*
X148468Y35873D01*
X146183Y36485D01*
D02*
G37*
G36*
X95383D02*
X93017D01*
X90732Y35873D01*
X88683Y34690D01*
X87010Y33017D01*
X85827Y30968D01*
X85215Y28683D01*
Y26317D01*
X85827Y24032D01*
X87010Y21983D01*
X88683Y20310D01*
X90732Y19127D01*
X93017Y18515D01*
X95383D01*
X97668Y19127D01*
X99717Y20310D01*
X101390Y21983D01*
X102573Y24032D01*
X103185Y26317D01*
Y28683D01*
X102573Y30968D01*
X101390Y33017D01*
X99717Y34690D01*
X97668Y35873D01*
X95383Y36485D01*
D02*
G37*
G36*
X295500Y40993D02*
X284324D01*
X283544Y40838D01*
X282882Y40396D01*
X282440Y39734D01*
X282285Y38954D01*
Y13046D01*
X282440Y12266D01*
X282882Y11604D01*
X283544Y11162D01*
X284324Y11007D01*
X295500D01*
X296280Y11162D01*
X296942Y11604D01*
X297384Y12266D01*
X297539Y13046D01*
Y38954D01*
X297384Y39734D01*
X296942Y40396D01*
X296280Y40838D01*
X295500Y40993D01*
D02*
G37*
%LPD*%
D49*
X119600Y27500D02*
D03*
D50*
X18500Y143200D02*
D03*
Y56800D02*
D03*
D51*
X58500Y143200D02*
D03*
Y56800D02*
D03*
D54*
X287500Y55000D02*
Y62500D01*
X282500Y67500D02*
X287500Y62500D01*
D57*
X299500Y173500D02*
D03*
X137500Y127500D02*
D03*
X262500Y35000D02*
D03*
X210000Y92500D02*
D03*
X225000D02*
D03*
Y107500D02*
D03*
X210000D02*
D03*
X215000Y157500D02*
D03*
X95000Y165000D02*
D03*
X470000Y85000D02*
D03*
X481250D02*
D03*
X492500D02*
D03*
Y115000D02*
D03*
X481250D02*
D03*
X470000D02*
D03*
X372500Y195000D02*
D03*
X382500D02*
D03*
X392500D02*
D03*
X402500D02*
D03*
X412500D02*
D03*
X422500D02*
D03*
X432500D02*
D03*
X442500D02*
D03*
X452500D02*
D03*
X462500D02*
D03*
X472500D02*
D03*
X485000Y194000D02*
D03*
X492500Y187500D02*
D03*
X495000Y177500D02*
D03*
Y167500D02*
D03*
Y160000D02*
D03*
Y150000D02*
D03*
X362500Y195000D02*
D03*
X495000Y52500D02*
D03*
Y42500D02*
D03*
Y32500D02*
D03*
Y22500D02*
D03*
X492500Y12500D02*
D03*
X485000Y7500D02*
D03*
X475000Y5000D02*
D03*
X465000D02*
D03*
X455000D02*
D03*
X445000D02*
D03*
X435000D02*
D03*
X425000D02*
D03*
X415000D02*
D03*
X405000D02*
D03*
X395000D02*
D03*
X385000D02*
D03*
X375000D02*
D03*
X363000D02*
D03*
X362500Y17500D02*
D03*
Y30000D02*
D03*
Y40000D02*
D03*
Y50000D02*
D03*
Y60000D02*
D03*
Y70000D02*
D03*
Y80000D02*
D03*
Y180000D02*
D03*
Y170000D02*
D03*
Y160000D02*
D03*
Y150000D02*
D03*
Y140000D02*
D03*
Y130000D02*
D03*
Y120000D02*
D03*
Y110000D02*
D03*
X385000Y49000D02*
D03*
Y62000D02*
D03*
X410000Y137500D02*
D03*
X322500Y17500D02*
D03*
X320000Y5000D02*
D03*
X247500Y55000D02*
D03*
X257500Y5000D02*
D03*
X267500D02*
D03*
X277500D02*
D03*
X287500D02*
D03*
X297500D02*
D03*
X307500D02*
D03*
X332500D02*
D03*
Y15000D02*
D03*
Y25000D02*
D03*
Y35000D02*
D03*
Y45000D02*
D03*
Y55000D02*
D03*
X322500D02*
D03*
X312500D02*
D03*
X282500Y55000D02*
D03*
X267500D02*
D03*
X257500D02*
D03*
X247500Y45000D02*
D03*
Y35000D02*
D03*
Y25000D02*
D03*
Y15000D02*
D03*
Y5000D02*
D03*
X282500Y67500D02*
D03*
X330000Y108000D02*
D03*
X332000Y157000D02*
D03*
X316000D02*
D03*
X270000Y125000D02*
D03*
X279000Y147000D02*
D03*
X65000Y45000D02*
D03*
X141000Y85000D02*
D03*
X179000Y67000D02*
D03*
X178000Y85000D02*
D03*
X92500Y52500D02*
D03*
X107500D02*
D03*
X120000D02*
D03*
X260000Y175000D02*
D03*
X270000D02*
D03*
Y185000D02*
D03*
X250000Y122500D02*
D03*
X259300Y185000D02*
D03*
X140000D02*
D03*
X167500Y157500D02*
D03*
X120000Y122500D02*
D03*
Y132500D02*
D03*
X112500Y122500D02*
D03*
X105000D02*
D03*
X95000Y132500D02*
D03*
X112500D02*
D03*
X105000D02*
D03*
X92500Y62500D02*
D03*
X75000Y55000D02*
D03*
Y145000D02*
D03*
D58*
X295500Y94500D02*
D03*
X284500D02*
D03*
X295500Y105500D02*
D03*
X284500D02*
D03*
M02*
