G04*
G04 #@! TF.GenerationSoftware,Altium Limited,Altium Designer,22.1.2 (22)*
G04*
G04 Layer_Color=32768*
%FSLAX44Y44*%
%MOMM*%
G71*
G04*
G04 #@! TF.SameCoordinates,873FB45C-190C-4682-B26A-08C162FF856E*
G04*
G04*
G04 #@! TF.FilePolarity,Positive*
G04*
G01*
G75*
%ADD12C,0.1524*%
%ADD13C,0.2000*%
%ADD60C,0.1000*%
%ADD65C,0.0500*%
%ADD66C,0.0508*%
G36*
X76420Y12260D02*
X81500D01*
Y1592D01*
X208500D01*
Y12260D01*
X213580D01*
Y41470D01*
X208500D01*
Y53408D01*
X81500D01*
Y41470D01*
X76420D01*
Y12260D01*
D02*
G37*
G36*
X151303Y99834D02*
X161082D01*
Y70166D01*
X151303D01*
Y67220D01*
X128697D01*
Y70166D01*
X118918D01*
Y99834D01*
X128697D01*
Y102780D01*
X151303D01*
Y99834D01*
D02*
G37*
G36*
X122982Y129205D02*
Y150795D01*
X135301D01*
Y160010D01*
X144699D01*
Y150795D01*
X157018D01*
Y129205D01*
X154199D01*
Y119990D01*
X125801D01*
Y129205D01*
X122982D01*
D02*
G37*
G36*
X411096Y114666D02*
X388490D01*
Y125334D01*
X411096D01*
Y114666D01*
D02*
G37*
G36*
X411303Y94666D02*
X388697D01*
Y105334D01*
X411303D01*
Y94666D01*
D02*
G37*
G36*
Y77166D02*
X388697D01*
Y87834D01*
X411303D01*
Y77166D01*
D02*
G37*
G36*
X312518Y10511D02*
X267306D01*
Y41489D01*
X312518D01*
Y10511D01*
D02*
G37*
D12*
X161082Y70166D02*
Y99834D01*
X151303Y70166D02*
X161082D01*
X151303Y67220D02*
Y70166D01*
X128697Y67220D02*
X151303D01*
X128697D02*
Y70166D01*
X118918D02*
X128697D01*
X118918D02*
Y99834D01*
X128697D01*
Y102780D01*
X151303D01*
Y99834D02*
Y102780D01*
Y99834D02*
X161082D01*
X312518Y10511D02*
Y41489D01*
X267306Y10511D02*
X312518D01*
X267306D02*
Y41489D01*
X312518D01*
X388490Y125334D02*
X411096D01*
X388490Y114666D02*
Y125334D01*
Y114666D02*
X411096D01*
Y125334D01*
X388697Y105334D02*
X411303D01*
X388697Y94666D02*
Y105334D01*
Y94666D02*
X411303D01*
Y105334D01*
X388697Y87834D02*
X411303D01*
X388697Y77166D02*
Y87834D01*
Y77166D02*
X411303D01*
Y87834D01*
X76420Y12260D02*
X81500D01*
Y1592D02*
Y12260D01*
Y1592D02*
X208500D01*
Y12260D01*
X213580D01*
Y41470D01*
X208500D02*
X213580D01*
X208500D02*
Y53408D01*
X81500D02*
X208500D01*
X81500Y41470D02*
Y53408D01*
X76420Y41470D02*
X81500D01*
X76420Y12260D02*
Y41470D01*
X125801Y119990D02*
X154199D01*
X125801D02*
Y129205D01*
X154199Y119990D02*
Y129205D01*
X122982D02*
X125801D01*
X154199D02*
X157018D01*
Y150795D01*
X144699D02*
X157018D01*
X144699D02*
Y160010D01*
X135301D02*
X144699D01*
X135301Y150795D02*
Y160010D01*
X122982Y150795D02*
X135301D01*
X122982Y129205D02*
Y150795D01*
D13*
X323750Y190000D02*
X336250D01*
X323750Y165000D02*
Y190000D01*
Y165000D02*
X336250D01*
Y190000D01*
X213750Y165000D02*
Y190000D01*
X201250Y165000D02*
X213750D01*
X201250D02*
Y190000D01*
X213750D01*
X181250D02*
X193750D01*
X181250Y165000D02*
Y190000D01*
Y165000D02*
X193750D01*
Y190000D01*
X245000Y75000D02*
Y130000D01*
X190000Y75000D02*
X245000D01*
X190000D02*
Y130000D01*
X245000D01*
X459400Y64000D02*
Y136000D01*
X599250D01*
Y64000D02*
Y136000D01*
X459400Y64000D02*
X599250D01*
X83500Y171750D02*
Y188250D01*
Y171750D02*
X111500D01*
Y188250D01*
X83500D02*
X111500D01*
X35500Y171500D02*
Y188500D01*
Y171500D02*
X69500D01*
Y188500D01*
X35500D02*
X69500D01*
X71000Y50800D02*
Y149200D01*
X-4500Y50800D02*
X71000D01*
X-4500D02*
Y149200D01*
X71000D01*
D60*
X290000Y95000D02*
Y105000D01*
X285000Y100000D02*
X295000D01*
D65*
X292850Y177850D02*
X322150D01*
X292850Y192150D02*
X322150D01*
X292850Y177850D02*
Y192150D01*
X322150Y177850D02*
Y192150D01*
X257100Y14000D02*
Y31000D01*
Y14000D02*
X267900D01*
X257100Y31000D02*
X267900D01*
Y14000D02*
Y31000D01*
X307412Y43500D02*
Y54500D01*
X288412Y43500D02*
Y54500D01*
X307412D01*
X288412Y43500D02*
X307412D01*
X145350Y177850D02*
X174650D01*
X145350Y192150D02*
X174650D01*
X145350Y177850D02*
Y192150D01*
X174650Y177850D02*
Y192150D01*
X224650D02*
X253950D01*
X224650Y177850D02*
X253950D01*
Y192150D01*
X224650Y177850D02*
Y192150D01*
X70400Y23500D02*
Y40500D01*
X59600D02*
X70400D01*
X59600Y23500D02*
X70400D01*
X59600D02*
Y40500D01*
X416500Y125400D02*
X433500D01*
X416500Y114600D02*
Y125400D01*
X433500Y114600D02*
Y125400D01*
X416500Y114600D02*
X433500D01*
X317100Y22500D02*
Y39500D01*
Y22500D02*
X327900D01*
X317100Y39500D02*
X327900D01*
Y22500D02*
Y39500D01*
X416500Y142900D02*
X433500D01*
X416500Y132100D02*
Y142900D01*
X433500Y132100D02*
Y142900D01*
X416500Y132100D02*
X433500D01*
X284400Y125500D02*
Y142500D01*
X273600D02*
X284400D01*
X273600Y125500D02*
X284400D01*
X273600D02*
Y142500D01*
X392500Y43600D02*
X409500D01*
Y54400D01*
X392500Y43600D02*
Y54400D01*
X409500D01*
X392500Y67400D02*
X409500D01*
X392500Y56600D02*
Y67400D01*
X409500Y56600D02*
Y67400D01*
X392500Y56600D02*
X409500D01*
X242100Y151500D02*
Y168500D01*
Y151500D02*
X252900D01*
X242100Y168500D02*
X252900D01*
Y151500D02*
Y168500D01*
X237900Y151500D02*
Y168500D01*
X227100D02*
X237900D01*
X227100Y151500D02*
X237900D01*
X227100D02*
Y168500D01*
X187500Y61600D02*
X204500D01*
Y72400D01*
X187500Y61600D02*
Y72400D01*
X204500D01*
X220400Y136500D02*
Y153500D01*
X209600D02*
X220400D01*
X209600Y136500D02*
X220400D01*
X209600D02*
Y153500D01*
X260800Y72900D02*
X277800D01*
X260800Y62100D02*
Y72900D01*
X277800Y62100D02*
Y72900D01*
X260800Y62100D02*
X277800D01*
X337400Y130500D02*
Y147500D01*
X326600D02*
X337400D01*
X326600Y130500D02*
X337400D01*
X326600D02*
Y147500D01*
X285500Y141400D02*
X302500D01*
X285500Y130600D02*
Y141400D01*
X302500Y130600D02*
Y141400D01*
X285500Y130600D02*
X302500D01*
X310500Y130500D02*
Y149500D01*
X321500Y130500D02*
Y149500D01*
X310500D02*
X321500D01*
X310500Y130500D02*
X321500D01*
X275500Y150500D02*
Y169500D01*
X264500Y150500D02*
Y169500D01*
Y150500D02*
X275500D01*
X264500Y169500D02*
X275500D01*
X264250Y74250D02*
X315750D01*
X264250Y125750D02*
X315750D01*
Y74250D02*
Y125750D01*
X264250Y74250D02*
Y125750D01*
X100500Y108000D02*
Y127000D01*
X89500Y108000D02*
Y127000D01*
Y108000D02*
X100500D01*
X89500Y127000D02*
X100500D01*
X87000Y68000D02*
Y87000D01*
X98000Y68000D02*
Y87000D01*
X87000D02*
X98000D01*
X87000Y68000D02*
X98000D01*
D66*
X274270Y153170D02*
X307730D01*
X274270D02*
Y168830D01*
X307730D01*
Y153170D02*
Y168830D01*
X88270Y144670D02*
Y160330D01*
Y144670D02*
X121730D01*
Y160330D01*
X88270D02*
X121730D01*
X175830Y120270D02*
Y153730D01*
X160170Y120270D02*
X175830D01*
X160170D02*
Y153730D01*
X175830D01*
M02*
