G04*
G04 #@! TF.GenerationSoftware,Altium Limited,Altium Designer,22.1.2 (22)*
G04*
G04 Layer_Physical_Order=1*
G04 Layer_Color=255*
%FSLAX44Y44*%
%MOMM*%
G71*
G04*
G04 #@! TF.SameCoordinates,873FB45C-190C-4682-B26A-08C162FF856E*
G04*
G04*
G04 #@! TF.FilePolarity,Positive*
G04*
G01*
G75*
%ADD13C,0.2000*%
%ADD15R,0.8000X0.8000*%
%ADD16R,0.7900X0.9300*%
G04:AMPARAMS|DCode=17|XSize=0.54mm|YSize=0.6mm|CornerRadius=0.1431mm|HoleSize=0mm|Usage=FLASHONLY|Rotation=90.000|XOffset=0mm|YOffset=0mm|HoleType=Round|Shape=RoundedRectangle|*
%AMROUNDEDRECTD17*
21,1,0.5400,0.3138,0,0,90.0*
21,1,0.2538,0.6000,0,0,90.0*
1,1,0.2862,0.1569,0.1269*
1,1,0.2862,0.1569,-0.1269*
1,1,0.2862,-0.1569,-0.1269*
1,1,0.2862,-0.1569,0.1269*
%
%ADD17ROUNDEDRECTD17*%
%ADD18R,0.5400X0.6000*%
%ADD19R,0.9779X0.5588*%
G04:AMPARAMS|DCode=20|XSize=1.1mm|YSize=1mm|CornerRadius=0.265mm|HoleSize=0mm|Usage=FLASHONLY|Rotation=180.000|XOffset=0mm|YOffset=0mm|HoleType=Round|Shape=RoundedRectangle|*
%AMROUNDEDRECTD20*
21,1,1.1000,0.4700,0,0,180.0*
21,1,0.5700,1.0000,0,0,180.0*
1,1,0.5300,-0.2850,0.2350*
1,1,0.5300,0.2850,0.2350*
1,1,0.5300,0.2850,-0.2350*
1,1,0.5300,-0.2850,-0.2350*
%
%ADD20ROUNDEDRECTD20*%
G04:AMPARAMS|DCode=21|XSize=1.1mm|YSize=1mm|CornerRadius=0.265mm|HoleSize=0mm|Usage=FLASHONLY|Rotation=270.000|XOffset=0mm|YOffset=0mm|HoleType=Round|Shape=RoundedRectangle|*
%AMROUNDEDRECTD21*
21,1,1.1000,0.4700,0,0,270.0*
21,1,0.5700,1.0000,0,0,270.0*
1,1,0.5300,-0.2350,-0.2850*
1,1,0.5300,-0.2350,0.2850*
1,1,0.5300,0.2350,0.2850*
1,1,0.5300,0.2350,-0.2850*
%
%ADD21ROUNDEDRECTD21*%
G04:AMPARAMS|DCode=22|XSize=0.54mm|YSize=0.6mm|CornerRadius=0.1431mm|HoleSize=0mm|Usage=FLASHONLY|Rotation=0.000|XOffset=0mm|YOffset=0mm|HoleType=Round|Shape=RoundedRectangle|*
%AMROUNDEDRECTD22*
21,1,0.5400,0.3138,0,0,0.0*
21,1,0.2538,0.6000,0,0,0.0*
1,1,0.2862,0.1269,-0.1569*
1,1,0.2862,-0.1269,-0.1569*
1,1,0.2862,-0.1269,0.1569*
1,1,0.2862,0.1269,0.1569*
%
%ADD22ROUNDEDRECTD22*%
%ADD23O,0.2500X0.8000*%
%ADD24O,0.8000X0.2500*%
%ADD25R,0.6000X0.5400*%
%ADD26R,1.3970X0.9398*%
%ADD27R,2.6000X2.6000*%
%ADD28R,0.3000X0.6000*%
%ADD29R,0.6000X0.3000*%
%ADD30R,3.4500X3.4500*%
%ADD31R,3.6000X1.2700*%
%ADD32R,4.2000X1.3500*%
%ADD33R,0.8000X1.2000*%
%ADD34R,0.7112X0.5588*%
%ADD35R,0.4918X1.1064*%
%ADD36R,1.0000X1.5000*%
%ADD37R,1.1500X0.6000*%
%ADD38R,1.1500X0.3000*%
%ADD49C,1.3970*%
G04:AMPARAMS|DCode=50|XSize=1mm|YSize=2.2mm|CornerRadius=0.5mm|HoleSize=0mm|Usage=FLASHONLY|Rotation=270.000|XOffset=0mm|YOffset=0mm|HoleType=Round|Shape=RoundedRectangle|*
%AMROUNDEDRECTD50*
21,1,1.0000,1.2000,0,0,270.0*
21,1,0.0000,2.2000,0,0,270.0*
1,1,1.0000,-0.6000,0.0000*
1,1,1.0000,-0.6000,0.0000*
1,1,1.0000,0.6000,0.0000*
1,1,1.0000,0.6000,0.0000*
%
%ADD50ROUNDEDRECTD50*%
G04:AMPARAMS|DCode=51|XSize=1mm|YSize=1.8mm|CornerRadius=0.5mm|HoleSize=0mm|Usage=FLASHONLY|Rotation=270.000|XOffset=0mm|YOffset=0mm|HoleType=Round|Shape=RoundedRectangle|*
%AMROUNDEDRECTD51*
21,1,1.0000,0.8000,0,0,270.0*
21,1,0.0000,1.8000,0,0,270.0*
1,1,1.0000,-0.4000,0.0000*
1,1,1.0000,-0.4000,0.0000*
1,1,1.0000,0.4000,0.0000*
1,1,1.0000,0.4000,0.0000*
%
%ADD51ROUNDEDRECTD51*%
%ADD53C,0.2540*%
%ADD54C,0.5000*%
%ADD55C,0.1690*%
%ADD56C,0.1900*%
%ADD57C,0.4500*%
%ADD58C,0.5000*%
G36*
X480000Y198500D02*
X481896Y198500D01*
X485615Y197760D01*
X489118Y196309D01*
X492271Y194202D01*
X494952Y191521D01*
X497059Y188368D01*
X498510Y184865D01*
X499250Y181146D01*
X499250Y179250D01*
X499250Y179250D01*
X499250Y179250D01*
Y142500D01*
X491170D01*
X491170Y176211D01*
X491109Y177584D01*
X490624Y180285D01*
X489668Y182858D01*
X488273Y185221D01*
X486482Y187301D01*
X484351Y189030D01*
X481948Y190356D01*
X479348Y191236D01*
X478000Y191500D01*
X478000Y191500D01*
X478000Y191500D01*
X366000Y191500D01*
Y102500D01*
X359000D01*
Y198500D01*
X480000Y198500D01*
D02*
G37*
G36*
X347500Y139601D02*
X346230Y138922D01*
X345756Y139239D01*
X344000Y139588D01*
X342492Y139288D01*
X334469D01*
X333569Y139467D01*
X330431D01*
X329092Y139201D01*
X327957Y138443D01*
X327199Y137308D01*
X326933Y135969D01*
Y133431D01*
X327199Y132092D01*
X327412Y131774D01*
Y128900D01*
X313564Y115052D01*
X313244Y114989D01*
X311756Y113994D01*
X311315Y113334D01*
X309000D01*
X308897Y113314D01*
X306250D01*
X304982Y113061D01*
X303907Y112343D01*
X303189Y111268D01*
X302936Y110000D01*
X303189Y108732D01*
X303907Y107657D01*
X304982Y106939D01*
X306250Y106686D01*
X308897D01*
X309000Y106666D01*
X309000Y106666D01*
X313012D01*
X313244Y106511D01*
X315000Y106162D01*
X315750D01*
X317506Y106511D01*
X318994Y107506D01*
X335244Y123756D01*
X336239Y125244D01*
X336588Y127000D01*
Y130112D01*
X343700D01*
X345456Y130461D01*
X346230Y130978D01*
X347500Y130300D01*
Y102500D01*
X318984D01*
X318116Y103080D01*
X316840Y103334D01*
X309000D01*
X308897Y103314D01*
X306250D01*
X304982Y103061D01*
X303907Y102343D01*
X303189Y101268D01*
X302936Y100000D01*
X303189Y98732D01*
X303907Y97657D01*
Y97343D01*
X303189Y96268D01*
X302936Y95000D01*
X303189Y93732D01*
X303346Y93496D01*
X303831Y92500D01*
X303346Y91504D01*
X303189Y91268D01*
X302936Y90000D01*
X303181Y88770D01*
X303187Y88729D01*
X302484Y87500D01*
X290000D01*
Y62500D01*
X269514D01*
X269343Y62712D01*
X268951Y63770D01*
X269501Y64592D01*
X269767Y65931D01*
Y68438D01*
X271765Y70436D01*
X276655D01*
X276856Y70396D01*
X281872D01*
X283148Y70650D01*
X284230Y71372D01*
X287337Y74480D01*
X288060Y75562D01*
X288314Y76838D01*
Y80899D01*
X288334Y81000D01*
X288314Y81103D01*
Y83750D01*
X288061Y85018D01*
X287343Y86093D01*
X286268Y86811D01*
X285000Y87064D01*
X283732Y86811D01*
X283496Y86654D01*
X282500Y86169D01*
X281504Y86654D01*
X281268Y86811D01*
X280000Y87064D01*
X278732Y86811D01*
X277657Y86093D01*
X276939Y85018D01*
X276803Y84334D01*
X269447D01*
X269062Y85604D01*
X269120Y85642D01*
X270143Y86666D01*
X271000D01*
X271103Y86686D01*
X273750D01*
X275018Y86939D01*
X276093Y87657D01*
X276811Y88732D01*
X277064Y90000D01*
X276811Y91268D01*
X276654Y91504D01*
X276169Y92500D01*
X276654Y93496D01*
X276811Y93732D01*
X277064Y95000D01*
X276811Y96268D01*
X276093Y97343D01*
Y97657D01*
X276811Y98732D01*
X277064Y100000D01*
X276811Y101268D01*
X276654Y101504D01*
X276169Y102500D01*
X276654Y103496D01*
X276811Y103732D01*
X277064Y105000D01*
X276811Y106268D01*
X276654Y106504D01*
X276169Y107500D01*
X276654Y108496D01*
X276811Y108732D01*
X277064Y110000D01*
X276811Y111268D01*
X276093Y112343D01*
X275018Y113061D01*
X273750Y113314D01*
X271103D01*
X271000Y113334D01*
X255015D01*
X254529Y114507D01*
X272358Y132336D01*
X273080Y133418D01*
X273334Y134694D01*
Y150980D01*
X275000D01*
Y154953D01*
X276270Y155339D01*
X276297Y155298D01*
X277836Y154270D01*
X279650Y153909D01*
X283102D01*
X285112Y151899D01*
Y138469D01*
X284933Y137569D01*
Y134431D01*
X285112Y133531D01*
Y132227D01*
X283842Y132102D01*
X283801Y132308D01*
X283043Y133443D01*
X281908Y134201D01*
X280569Y134467D01*
X277431D01*
X276092Y134201D01*
X274957Y133443D01*
X274199Y132308D01*
X273933Y130969D01*
Y128431D01*
X274199Y127092D01*
X274957Y125957D01*
X276092Y125199D01*
X277431Y124933D01*
X278494D01*
X281574Y121853D01*
X281666Y121716D01*
Y119460D01*
X281686Y119358D01*
Y116250D01*
X281939Y114982D01*
X282657Y113907D01*
X283732Y113189D01*
X285000Y112936D01*
X286268Y113189D01*
X286504Y113346D01*
X287500Y113831D01*
X288496Y113346D01*
X288732Y113189D01*
X290000Y112936D01*
X291268Y113189D01*
X292343Y113907D01*
X293061Y114982D01*
X293314Y116250D01*
Y118897D01*
X293334Y119000D01*
Y122890D01*
X294239Y124244D01*
X294588Y126000D01*
X294288Y127508D01*
Y133531D01*
X294467Y134431D01*
Y137569D01*
X294288Y138469D01*
Y153800D01*
X293939Y155556D01*
X292944Y157044D01*
X290091Y159897D01*
Y163350D01*
X289730Y165164D01*
X288702Y166702D01*
X287164Y167730D01*
X287088Y167745D01*
Y174500D01*
X286739Y176256D01*
X285744Y177744D01*
X285244Y178244D01*
X283756Y179239D01*
X282000Y179588D01*
X280244Y179239D01*
X278756Y178244D01*
X277761Y176756D01*
X277412Y175000D01*
X277761Y173244D01*
X277912Y173019D01*
Y167745D01*
X277836Y167730D01*
X276297Y166702D01*
X275270Y165164D01*
X274909Y163350D01*
Y160380D01*
X265000D01*
Y150980D01*
X266666D01*
Y136075D01*
X248925Y118334D01*
X246000D01*
Y118500D01*
X236000D01*
Y106500D01*
Y96500D01*
Y84000D01*
X196500D01*
Y74862D01*
X195761Y73756D01*
X195412Y72000D01*
X195512Y71497D01*
Y67200D01*
X195533Y67095D01*
Y65431D01*
X195799Y64092D01*
X196557Y62957D01*
X197350Y62428D01*
X196965Y61158D01*
X178388D01*
X175382Y64164D01*
Y80370D01*
X175153Y81521D01*
X174501Y82497D01*
X174501Y82497D01*
X167921Y89077D01*
X166945Y89729D01*
X165794Y89958D01*
X164312D01*
X164271Y90167D01*
X163619Y91143D01*
X161891Y92871D01*
X161107Y93394D01*
X160542Y93960D01*
Y99294D01*
X146763D01*
Y89706D01*
X156288D01*
X157377Y88617D01*
X157377Y88617D01*
X158160Y88094D01*
X158557Y87697D01*
X158713Y86912D01*
X159365Y85936D01*
X159666Y85635D01*
Y84365D01*
X159365Y84064D01*
X158713Y83088D01*
X158557Y82303D01*
X158160Y81906D01*
X157377Y81383D01*
X157377Y81383D01*
X156288Y80294D01*
X146763D01*
Y70706D01*
X160542D01*
Y76040D01*
X161107Y76606D01*
X161891Y77129D01*
X163619Y78857D01*
X164073Y78902D01*
X165466Y77509D01*
Y61303D01*
X165695Y60152D01*
X166347Y59176D01*
X173400Y52123D01*
X174376Y51471D01*
X175527Y51242D01*
X175527Y51242D01*
X214331D01*
X215483Y51471D01*
X216458Y52123D01*
X225396Y61061D01*
X226666Y60535D01*
Y43881D01*
X203900Y21116D01*
X202990Y21983D01*
X204173Y24032D01*
X204785Y26317D01*
Y28683D01*
X204173Y30968D01*
X202990Y33017D01*
X201317Y34690D01*
X199268Y35873D01*
X196983Y36485D01*
X194617D01*
X192332Y35873D01*
X190283Y34690D01*
X188610Y33017D01*
X187427Y30968D01*
X186815Y28683D01*
Y26317D01*
X187427Y24032D01*
X188610Y21983D01*
X190283Y20310D01*
X192332Y19127D01*
X194617Y18515D01*
X196983D01*
X199268Y19127D01*
X201317Y20310D01*
X202185Y19400D01*
X198619Y15834D01*
X186781D01*
X178703Y23912D01*
X178773Y24032D01*
X179385Y26317D01*
Y28683D01*
X178773Y30968D01*
X177590Y33017D01*
X175917Y34690D01*
X173868Y35873D01*
X171583Y36485D01*
X169217D01*
X166932Y35873D01*
X164883Y34690D01*
X163210Y33017D01*
X162027Y30968D01*
X161415Y28683D01*
Y26317D01*
X162027Y24032D01*
X163210Y21983D01*
X164883Y20310D01*
X166932Y19127D01*
X169217Y18515D01*
X171583D01*
X173868Y19127D01*
X173988Y19197D01*
X181178Y12007D01*
X180692Y10834D01*
X153881D01*
X148334Y16381D01*
Y19091D01*
X148468Y19127D01*
X150517Y20310D01*
X152190Y21983D01*
X153373Y24032D01*
X153985Y26317D01*
Y28683D01*
X153373Y30968D01*
X152190Y33017D01*
X150517Y34690D01*
X148468Y35873D01*
X146183Y36485D01*
X143817D01*
X141532Y35873D01*
X139483Y34690D01*
X137810Y33017D01*
X136627Y30968D01*
X136015Y28683D01*
Y26317D01*
X136627Y24032D01*
X137810Y21983D01*
X139483Y20310D01*
X141532Y19127D01*
X141666Y19091D01*
Y15000D01*
X141920Y13724D01*
X142642Y12643D01*
X150142Y5142D01*
X151224Y4420D01*
X152500Y4166D01*
X202500D01*
X203776Y4420D01*
X204858Y5142D01*
X236230Y36515D01*
X237500Y35989D01*
Y0D01*
X0D01*
Y200000D01*
X347500D01*
Y139601D01*
D02*
G37*
G36*
X336000Y2000D02*
X244000D01*
Y58000D01*
X286000D01*
Y52334D01*
X261194D01*
X259918Y52080D01*
X259797Y52000D01*
X251000D01*
Y8000D01*
X329000D01*
Y52000D01*
X309000D01*
Y58000D01*
X336000D01*
Y2000D01*
D02*
G37*
G36*
X366000Y8000D02*
X476813Y8000D01*
X478000Y8000D01*
X478000Y8000D01*
X478000Y8000D01*
X479348Y8264D01*
X481948Y9144D01*
X484351Y10469D01*
X486482Y12199D01*
X488273Y14279D01*
X489668Y16642D01*
X490624Y19215D01*
X491109Y21916D01*
X491170Y23289D01*
X491170Y57000D01*
X499250D01*
Y20250D01*
X499250Y20250D01*
X499250Y20250D01*
X499250Y18354D01*
X498510Y14635D01*
X497059Y11132D01*
X494952Y7979D01*
X492271Y5298D01*
X489118Y3191D01*
X485615Y1740D01*
X481896Y1000D01*
X480000Y1000D01*
X359000Y1000D01*
Y84626D01*
X366000D01*
Y8000D01*
D02*
G37*
%LPC*%
G36*
X237050Y191650D02*
X225150D01*
Y188334D01*
X213500D01*
Y191000D01*
X201500D01*
Y179000D01*
X213500D01*
Y181666D01*
X225150D01*
Y178350D01*
X237050D01*
Y191650D01*
D02*
G37*
G36*
X321650D02*
X309750D01*
Y178350D01*
X321650D01*
Y181666D01*
X324000D01*
Y179000D01*
X336000D01*
Y191000D01*
X324000D01*
Y188334D01*
X321650D01*
Y191650D01*
D02*
G37*
G36*
X174150D02*
X162250D01*
Y178350D01*
X174150D01*
Y181666D01*
X181500D01*
Y179000D01*
X193500D01*
Y191000D01*
X181500D01*
Y188334D01*
X174150D01*
Y191650D01*
D02*
G37*
G36*
X336000Y176000D02*
X324000D01*
Y173334D01*
X320176D01*
X319907Y173603D01*
X318345Y174250D01*
X316655D01*
X315093Y173603D01*
X313897Y172407D01*
X313250Y170845D01*
Y169155D01*
X313897Y167593D01*
X315093Y166397D01*
X316655Y165750D01*
X318345D01*
X319907Y166397D01*
X320176Y166666D01*
X324000D01*
Y164000D01*
X336000D01*
Y176000D01*
D02*
G37*
G36*
X70500Y189500D02*
X56500D01*
Y170500D01*
X70500D01*
Y175412D01*
X82500D01*
Y172000D01*
X94500D01*
Y188000D01*
X82500D01*
Y184588D01*
X70500D01*
Y189500D01*
D02*
G37*
G36*
X213500Y176000D02*
X201500D01*
Y168715D01*
X198158Y165373D01*
X196700Y165457D01*
X196570Y165539D01*
X196357Y165858D01*
X193500Y168715D01*
Y176000D01*
X181500D01*
Y164000D01*
X188785D01*
X190666Y162119D01*
Y123500D01*
X189186D01*
X188603Y124907D01*
X187407Y126103D01*
X185845Y126750D01*
X184155D01*
X184095Y126725D01*
X183039Y127431D01*
Y133000D01*
X182884Y133780D01*
X182442Y134442D01*
X180442Y136442D01*
X180442Y136442D01*
X179780Y136884D01*
X179000Y137039D01*
X148000D01*
X148000Y137039D01*
X147220Y136884D01*
X146558Y136442D01*
X146558Y136442D01*
X145710Y135594D01*
X145041D01*
Y134925D01*
X144558Y134442D01*
X144116Y133780D01*
X143961Y133000D01*
Y117000D01*
X144116Y116220D01*
X144558Y115558D01*
X147558Y112558D01*
X148220Y112116D01*
X149000Y111961D01*
X179000D01*
X179780Y112116D01*
X180442Y112558D01*
X182442Y114558D01*
X182884Y115220D01*
X182927Y115437D01*
X184254Y115906D01*
X187288Y112872D01*
X188370Y112150D01*
X189000Y112024D01*
Y106500D01*
Y96500D01*
Y86500D01*
X199000D01*
Y91500D01*
Y101500D01*
Y111500D01*
Y121000D01*
X238500D01*
Y129638D01*
X239239Y130744D01*
X239588Y132500D01*
Y151112D01*
X245031D01*
X245931Y150933D01*
X249069D01*
X249969Y151112D01*
X257700D01*
X259456Y151461D01*
X260944Y152456D01*
X261244Y152756D01*
X262239Y154244D01*
X262588Y156000D01*
X262239Y157756D01*
X261244Y159244D01*
X259756Y160239D01*
X258000Y160588D01*
X256492Y160288D01*
X249969D01*
X249069Y160467D01*
X245931D01*
X245031Y160288D01*
X234969D01*
X234069Y160467D01*
X230931D01*
X229592Y160201D01*
X228457Y159443D01*
X227699Y158308D01*
X227433Y156969D01*
Y154431D01*
X227699Y153092D01*
X228457Y151957D01*
X229592Y151199D01*
X230412Y151036D01*
Y146359D01*
X229142Y146106D01*
X228603Y147407D01*
X227407Y148603D01*
X225845Y149250D01*
X224155D01*
X222593Y148603D01*
X221397Y147407D01*
X220750Y145845D01*
Y144544D01*
X220750Y144155D01*
X219604Y143602D01*
X219043Y144443D01*
X217908Y145201D01*
X216569Y145467D01*
X213431D01*
X212531Y145288D01*
X206700D01*
X204944Y144939D01*
X204604Y144712D01*
X203334Y145391D01*
Y161119D01*
X206215Y164000D01*
X213500D01*
Y176000D01*
D02*
G37*
G36*
X112500Y188000D02*
X100500D01*
Y172000D01*
X101912D01*
Y159081D01*
X102261Y157325D01*
X103256Y155837D01*
X105909Y153184D01*
Y150150D01*
X106270Y148336D01*
X107298Y146798D01*
X108836Y145770D01*
X110650Y145409D01*
X116350D01*
X118164Y145770D01*
X119703Y146798D01*
X120447Y147912D01*
X135541D01*
Y144406D01*
X144459D01*
Y151289D01*
X144588Y151938D01*
Y152459D01*
X144459Y153108D01*
Y159470D01*
X135541D01*
Y157088D01*
X120447D01*
X119703Y158202D01*
X118164Y159230D01*
X116350Y159591D01*
X112479D01*
X111088Y160982D01*
Y172000D01*
X112500D01*
Y188000D01*
D02*
G37*
G36*
X48500Y189500D02*
X34500D01*
Y170500D01*
X36912D01*
Y166000D01*
X37261Y164244D01*
X38256Y162756D01*
X42806Y158205D01*
X44295Y157211D01*
X46050Y156862D01*
X66549D01*
X78341Y145070D01*
Y129829D01*
X77099Y128588D01*
X72000D01*
Y129000D01*
X56500D01*
Y128548D01*
X48960D01*
X47204Y128199D01*
X45716Y127204D01*
X39256Y120744D01*
X38261Y119256D01*
X37912Y117500D01*
Y82500D01*
X38261Y80744D01*
X39256Y79256D01*
X45796Y72716D01*
X47284Y71721D01*
X49040Y71372D01*
X56500D01*
Y71000D01*
X72000D01*
Y78936D01*
X87500D01*
Y77120D01*
X97500D01*
Y83520D01*
X98673Y84006D01*
X101575Y81104D01*
X102516Y80475D01*
X103627Y80254D01*
X111084D01*
X115941Y75398D01*
X116882Y74769D01*
X117992Y74548D01*
X119458D01*
Y70706D01*
X133237D01*
Y80206D01*
Y89706D01*
Y99294D01*
X119458D01*
Y95452D01*
X117992D01*
X116882Y95231D01*
X115941Y94602D01*
X111084Y89746D01*
X106356D01*
X87976Y108126D01*
X88502Y109396D01*
X90000D01*
Y108480D01*
X100000D01*
Y117880D01*
X90000D01*
Y116064D01*
X85797D01*
X85271Y117049D01*
X85257Y117334D01*
X85588Y119000D01*
Y119250D01*
X85239Y121006D01*
X84244Y122494D01*
X84114Y122625D01*
X86173Y124685D01*
X87168Y126173D01*
X87517Y127929D01*
Y146971D01*
X87168Y148726D01*
X86173Y150215D01*
X71694Y164694D01*
X70206Y165689D01*
X68450Y166038D01*
X47951D01*
X46088Y167901D01*
Y170500D01*
X48500D01*
Y189500D01*
D02*
G37*
G36*
X321000Y140380D02*
X311000D01*
Y137154D01*
X310182Y136608D01*
X297690Y124115D01*
X297657Y124093D01*
X296939Y123018D01*
X296938Y123013D01*
X296920Y122986D01*
X296666Y121710D01*
Y119000D01*
X296686Y118897D01*
Y116250D01*
X296939Y114982D01*
X297657Y113907D01*
X298732Y113189D01*
X300000Y112936D01*
X301268Y113189D01*
X302343Y113907D01*
X303061Y114982D01*
X303314Y116250D01*
Y118897D01*
X303334Y119000D01*
Y120329D01*
X313921Y130916D01*
X314570D01*
X314892Y130980D01*
X321000D01*
Y140380D01*
D02*
G37*
G36*
X95383Y36485D02*
X93017D01*
X90732Y35873D01*
X88683Y34690D01*
X87010Y33017D01*
X85827Y30968D01*
X85818Y30934D01*
X69382D01*
X69043Y31443D01*
X67908Y32201D01*
X66569Y32467D01*
X63431D01*
X62092Y32201D01*
X60957Y31443D01*
X60199Y30308D01*
X59933Y28969D01*
Y26431D01*
X60199Y25092D01*
X60957Y23957D01*
X62092Y23199D01*
X63431Y22933D01*
X66569D01*
X67908Y23199D01*
X69043Y23957D01*
X69249Y24266D01*
X85765D01*
X85827Y24032D01*
X87010Y21983D01*
X88683Y20310D01*
X90732Y19127D01*
X93017Y18515D01*
X95383D01*
X97668Y19127D01*
X99717Y20310D01*
X101390Y21983D01*
X102573Y24032D01*
X103185Y26317D01*
Y28683D01*
X102573Y30968D01*
X101390Y33017D01*
X99717Y34690D01*
X97668Y35873D01*
X95383Y36485D01*
D02*
G37*
%LPD*%
G36*
X179000Y135000D02*
X181000Y133000D01*
Y123949D01*
X180750Y123345D01*
Y121655D01*
X181000Y121051D01*
Y116000D01*
X179000Y114000D01*
X149000D01*
X146000Y117000D01*
Y133000D01*
X148000Y135000D01*
X179000D01*
Y135000D01*
D02*
G37*
D13*
X200000Y72000D02*
Y79000D01*
X185000Y85000D02*
X194000D01*
D15*
X330000Y170000D02*
D03*
Y185000D02*
D03*
X207500D02*
D03*
Y170000D02*
D03*
X187500D02*
D03*
Y185000D02*
D03*
D16*
X299300D02*
D03*
X315700D02*
D03*
X151800D02*
D03*
X168200D02*
D03*
X247500D02*
D03*
X231100D02*
D03*
D17*
X262500Y18200D02*
D03*
Y26800D02*
D03*
X65000Y36300D02*
D03*
Y27700D02*
D03*
X322500Y26700D02*
D03*
Y35300D02*
D03*
X279000Y138300D02*
D03*
Y129700D02*
D03*
X247500Y155700D02*
D03*
Y164300D02*
D03*
X232500D02*
D03*
Y155700D02*
D03*
X215000Y149300D02*
D03*
Y140700D02*
D03*
X332000Y143300D02*
D03*
Y134700D02*
D03*
D18*
X302232Y49000D02*
D03*
X293592D02*
D03*
D19*
X153652Y75500D02*
D03*
Y85000D02*
D03*
Y94500D02*
D03*
X126348D02*
D03*
Y85000D02*
D03*
Y75500D02*
D03*
D20*
X299500Y161000D02*
D03*
X282500D02*
D03*
X113500Y152500D02*
D03*
X96500D02*
D03*
D21*
X168000Y145500D02*
D03*
Y128500D02*
D03*
D22*
X420700Y120000D02*
D03*
X429300D02*
D03*
X420700Y137500D02*
D03*
X429300D02*
D03*
X405300Y49000D02*
D03*
X396700D02*
D03*
Y62000D02*
D03*
X405300D02*
D03*
X200300Y67000D02*
D03*
X191700D02*
D03*
X265000Y67500D02*
D03*
X273600D02*
D03*
X289700Y136000D02*
D03*
X298300D02*
D03*
D23*
X295000Y81000D02*
D03*
X290000D02*
D03*
X285000D02*
D03*
X280000D02*
D03*
X300000D02*
D03*
Y119000D02*
D03*
X290000D02*
D03*
X295000D02*
D03*
X280000D02*
D03*
X285000D02*
D03*
D24*
X271000Y90000D02*
D03*
Y95000D02*
D03*
X309000D02*
D03*
Y90000D02*
D03*
Y100000D02*
D03*
Y105000D02*
D03*
Y110000D02*
D03*
X271000Y100000D02*
D03*
Y105000D02*
D03*
Y110000D02*
D03*
D25*
X316000Y144320D02*
D03*
Y135680D02*
D03*
X270000Y155680D02*
D03*
Y164320D02*
D03*
X95000Y113180D02*
D03*
Y121820D02*
D03*
X92500Y81820D02*
D03*
Y73180D02*
D03*
D26*
X302993Y17750D02*
D03*
Y34250D02*
D03*
X276831D02*
D03*
Y17750D02*
D03*
D27*
X290000Y100000D02*
D03*
D28*
X235000Y126000D02*
D03*
X230000D02*
D03*
X225000D02*
D03*
X220000D02*
D03*
X215000D02*
D03*
X210000D02*
D03*
X205000D02*
D03*
X200000D02*
D03*
Y79000D02*
D03*
X205000D02*
D03*
X210000D02*
D03*
X215000D02*
D03*
X220000D02*
D03*
X225000D02*
D03*
X230000D02*
D03*
X235000D02*
D03*
D29*
X241000Y85000D02*
D03*
Y90000D02*
D03*
Y95000D02*
D03*
Y100000D02*
D03*
Y105000D02*
D03*
Y110000D02*
D03*
Y115000D02*
D03*
Y120000D02*
D03*
X194000D02*
D03*
Y115000D02*
D03*
Y110000D02*
D03*
Y105000D02*
D03*
Y100000D02*
D03*
Y95000D02*
D03*
Y90000D02*
D03*
Y85000D02*
D03*
D30*
X217500Y102500D02*
D03*
D31*
X483400Y100000D02*
D03*
D32*
X481400Y128250D02*
D03*
Y71750D02*
D03*
D33*
X106500Y180000D02*
D03*
X88500D02*
D03*
D34*
X394586Y120000D02*
D03*
X405000D02*
D03*
X394793Y100000D02*
D03*
X405207D02*
D03*
X394793Y82500D02*
D03*
X405207D02*
D03*
D35*
X140000Y151938D02*
D03*
X149500Y128062D02*
D03*
X130500D02*
D03*
D36*
X63500Y180000D02*
D03*
X41500D02*
D03*
D37*
X64250Y68000D02*
D03*
Y132000D02*
D03*
Y124000D02*
D03*
Y76000D02*
D03*
D38*
Y82500D02*
D03*
Y87500D02*
D03*
Y92500D02*
D03*
Y97500D02*
D03*
Y102500D02*
D03*
Y107500D02*
D03*
Y112500D02*
D03*
Y117500D02*
D03*
D49*
X195800Y27500D02*
D03*
X170400D02*
D03*
X145000D02*
D03*
X119600D02*
D03*
X94200D02*
D03*
D50*
X18500Y143200D02*
D03*
Y56800D02*
D03*
D51*
X58500Y143200D02*
D03*
Y56800D02*
D03*
D53*
X481400Y128250D02*
G03*
X482920Y124580I5191J0D01*
G01*
X480092Y125092D02*
G03*
X481400Y128250I-3158J3158D01*
G01*
X481250Y115000D02*
G03*
X481400Y115362I-362J362D01*
G01*
X313200Y185000D02*
X330000D01*
X317500Y170000D02*
X330000D01*
X185000Y122500D02*
X185375Y122125D01*
X193770Y115230D02*
X194000Y115000D01*
X189646Y115230D02*
X193770D01*
X185375Y119501D02*
X189646Y115230D01*
X185375Y119501D02*
Y122125D01*
X481400Y115362D02*
Y128250D01*
X470000Y115000D02*
X480092Y125092D01*
X130500Y128062D02*
X131062Y127500D01*
X137500D01*
X302993Y17750D02*
X303243Y17500D01*
X322500D01*
X262500Y26800D02*
Y35000D01*
Y26007D02*
Y26800D01*
Y35000D02*
X263030D01*
X263780Y34250D02*
X276831D01*
X263030Y35000D02*
X263780Y34250D01*
X262260Y25767D02*
X262500Y26007D01*
X255996Y17750D02*
X276831D01*
X254508Y19238D02*
Y42314D01*
Y19238D02*
X255996Y17750D01*
X254508Y42314D02*
X261194Y49000D01*
X293592D01*
X215000Y149300D02*
Y157500D01*
X95000Y165000D02*
X95375Y164625D01*
X482920Y75420D02*
X492500Y85000D01*
X481400Y71750D02*
Y84638D01*
X470000Y85000D02*
X480092Y74908D01*
X482920Y124580D02*
X492500Y115000D01*
X316840Y100000D02*
X319300Y97540D01*
X378881D01*
X384555Y91866D02*
X386659D01*
X394793Y100000D01*
X378881Y97540D02*
X384555Y91866D01*
X385000Y49000D02*
X396700D01*
X385000Y62000D02*
X396700D01*
X377000Y93000D02*
X387500Y82500D01*
X317419Y93000D02*
X377000D01*
X315420Y95000D02*
X317419Y93000D01*
X405253Y72000D02*
Y82453D01*
Y49047D02*
Y72000D01*
X313750Y87960D02*
X370000D01*
X309000Y90000D02*
X311710D01*
X313750Y87960D01*
X370000D02*
X385960Y72000D01*
X405253D01*
Y49047D02*
X405300Y49000D01*
X405207Y82500D02*
X405253Y82453D01*
X387500Y82500D02*
X394793D01*
X395587Y83294D02*
Y86648D01*
X394793Y82500D02*
X395587Y83294D01*
X405207Y93396D02*
Y100000D01*
X401833Y90022D02*
X405207Y93396D01*
X398961Y90022D02*
X401833D01*
X395587Y86648D02*
X398961Y90022D01*
X309000Y95000D02*
X315420D01*
X309000Y100000D02*
X316840D01*
X309000Y105000D02*
X312590D01*
X312610Y104980D01*
X318140D01*
X318160Y105000D02*
X320000D01*
X318140Y104980D02*
X318160Y105000D01*
X314250Y110000D02*
X315000Y110750D01*
X309000Y110000D02*
X314250D01*
X394689Y100104D02*
X394793Y100000D01*
X394586Y120000D02*
X394689Y119896D01*
Y100104D02*
Y119896D01*
X405000Y120000D02*
X420700D01*
X410000Y137500D02*
X420700D01*
X429300Y120000D02*
Y137500D01*
Y114700D02*
X444000Y100000D01*
X429300Y114700D02*
Y120000D01*
X444000Y100000D02*
X483400D01*
X322500Y17500D02*
Y26700D01*
X300000Y51532D02*
X302232Y49300D01*
Y35011D02*
Y49300D01*
X300000Y51532D02*
Y81000D01*
X293592Y49000D02*
X295000Y50408D01*
Y81000D01*
X255300Y67500D02*
X265000D01*
X266331Y68831D01*
Y69717D01*
X270384Y73770D01*
X276816D01*
X276856Y73730D01*
X281872D01*
X284980Y76838D01*
Y80980D01*
X285000Y81000D01*
X273600Y67500D02*
X282500D01*
X289980Y74980D01*
Y80980D02*
X290000Y81000D01*
X289980Y74980D02*
Y80980D01*
X304043Y35300D02*
X322500D01*
X302993Y34250D02*
X304043Y35300D01*
X302232Y35011D02*
X302993Y34250D01*
X309000Y110000D02*
X309000Y110000D01*
X316000Y144320D02*
Y157000D01*
X300000Y121710D02*
X312540Y134250D01*
X314570D01*
X300000Y119000D02*
Y121710D01*
X314570Y134250D02*
X316000Y135680D01*
X295020Y122860D02*
X295619Y123459D01*
Y123761D02*
X298500Y126642D01*
Y129358D01*
X295619Y123459D02*
Y123761D01*
X295020Y119020D02*
Y122860D01*
X295000Y119000D02*
X295020Y119020D01*
X285000Y119460D02*
Y122840D01*
X284540Y123300D02*
X285000Y122840D01*
X284540Y123300D02*
Y123591D01*
X284520Y123610D02*
X284540Y123591D01*
X284520Y123610D02*
Y123622D01*
X280631Y127512D02*
X284520Y123622D01*
X280000Y119000D02*
Y121710D01*
X279980Y121730D02*
X280000Y121710D01*
X278782Y121730D02*
X279980D01*
X285000Y119460D02*
X285460Y119000D01*
X279000Y129700D02*
X279213D01*
X280631Y127512D02*
Y128282D01*
X279213Y129700D02*
X280631Y128282D01*
X290000Y119000D02*
Y126000D01*
X290000Y126000D01*
X270000Y125000D02*
X273000Y122000D01*
X278512D01*
X278782Y121730D01*
X279000Y138300D02*
Y147000D01*
X65000Y36300D02*
Y45000D01*
X65100Y27600D02*
X94100D01*
X94200Y27500D01*
X65000Y27700D02*
X65100Y27600D01*
X185400Y12500D02*
X200000D01*
X230000Y42500D01*
X170400Y27500D02*
X185400Y12500D01*
X230000Y42500D02*
Y79000D01*
X235000Y40000D02*
Y79000D01*
X202500Y7500D02*
X235000Y40000D01*
X152500Y7500D02*
X202500D01*
X145000Y15000D02*
X152500Y7500D01*
X145000Y15000D02*
Y27500D01*
X242500Y85000D02*
X250801Y76699D01*
X263240D01*
X241000Y85000D02*
X242500D01*
X263240Y76699D02*
X267541Y81000D01*
X280000D01*
X254565Y82594D02*
X257486D01*
X257861Y82219D01*
X247389Y89770D02*
X254565Y82594D01*
X241230Y89770D02*
X247389D01*
X248580Y95000D02*
X255579Y88000D01*
X241000Y95000D02*
X248580D01*
X255579Y88000D02*
X266762D01*
X241000Y100000D02*
X250000D01*
X257460Y92540D01*
X262540D01*
X241000Y90000D02*
X241230Y89770D01*
X260000Y98060D02*
X260530D01*
X262470Y100000D02*
X271000D01*
X260530Y98060D02*
X262470Y100000D01*
X265000Y95000D02*
X271000D01*
X262540Y92540D02*
X265000Y95000D01*
X266762Y88000D02*
X268270Y89508D01*
X268290Y90000D02*
X271000D01*
X268270Y89980D02*
X268290Y90000D01*
X268270Y89508D02*
Y89980D01*
X241000Y105000D02*
X271000D01*
X241000Y110000D02*
X241000Y110000D01*
X271000D01*
X270000Y134694D02*
Y155680D01*
X250306Y115000D02*
X270000Y134694D01*
X241000Y115000D02*
X250306D01*
X247500Y120000D02*
X250000Y122500D01*
X241000Y120000D02*
X247500D01*
X235000Y132500D02*
X235000Y132500D01*
X235000Y126000D02*
Y132500D01*
X220000Y133485D02*
X225000Y138485D01*
Y145000D01*
X220000Y126000D02*
Y133485D01*
X215000Y126000D02*
Y140700D01*
X207500Y185000D02*
X231100D01*
X200000Y162500D02*
X207500Y170000D01*
X200000Y126000D02*
Y162500D01*
X168200Y185000D02*
X187500D01*
X194000Y120000D02*
Y163500D01*
X187500Y170000D02*
X194000Y163500D01*
X92050Y112730D02*
X92500Y113180D01*
X64480Y112730D02*
X92050D01*
X64250Y82500D02*
X64480Y82270D01*
X92050D01*
X92500Y81820D01*
X64250Y112500D02*
X64480Y112730D01*
D54*
X299300Y185000D02*
X299500Y184800D01*
Y173500D02*
Y184800D01*
X298300Y136000D02*
Y161000D01*
X247500Y164310D02*
X269990D01*
X232510D02*
X247500D01*
X95000Y154000D02*
X96500Y152500D01*
X95000Y154000D02*
Y165000D01*
X77625Y122625D02*
X81000Y119250D01*
X320000Y105000D02*
X323000Y108000D01*
X330000D01*
X315750Y110750D02*
X332000Y127000D01*
Y134700D01*
X315000Y110750D02*
X315750D01*
X343700Y134700D02*
X344000Y135000D01*
X332000Y134700D02*
X343700D01*
X332000Y143300D02*
Y157000D01*
X299500Y161000D02*
Y173500D01*
X282000Y175000D02*
X282500Y174500D01*
Y161000D02*
Y174500D01*
X298300Y136000D02*
X298500Y135800D01*
X282500Y161000D02*
X289700Y153800D01*
Y136000D02*
Y153800D01*
X298500Y129358D02*
Y135800D01*
X289700Y126300D02*
Y135500D01*
Y126300D02*
X290000Y126000D01*
X191700Y67000D02*
X191900D01*
X179000D02*
X191700D01*
X141000Y85000D02*
X153652D01*
X200300Y67000D02*
X211000D01*
X200100Y67200D02*
Y71900D01*
X200000Y72000D02*
X200100Y71900D01*
Y67200D02*
X200300Y67000D01*
X81000Y119000D02*
Y119250D01*
X76250Y124000D02*
X77625Y122625D01*
X76250Y124000D02*
X79000D01*
X64250D02*
X76250D01*
X118000Y85000D02*
X126348D01*
X178000D02*
X185000D01*
X92500Y52500D02*
Y62500D01*
X119600Y52100D02*
X120000Y52500D01*
X119600Y27500D02*
Y52100D01*
X92500Y62500D02*
Y73180D01*
X247500Y164310D02*
Y185000D01*
Y164300D02*
Y164310D01*
Y185000D02*
X259300D01*
X269990Y164310D02*
X270000Y164320D01*
X232500Y164300D02*
X232510Y164310D01*
X247500Y155700D02*
X257700D01*
X258000Y156000D01*
X232500Y155700D02*
X247500D01*
X235000Y132500D02*
Y153200D01*
X206000Y140000D02*
X206700Y140700D01*
X215000D01*
X140000Y185000D02*
X151800D01*
X167500Y146000D02*
Y157500D01*
Y146000D02*
X168000Y145500D01*
X149541Y128281D02*
X167781D01*
X149500Y128062D02*
Y128240D01*
X149541Y128281D01*
X167781D02*
X168000Y128500D01*
X113500Y152500D02*
X139959D01*
X140000Y152459D01*
Y151938D02*
Y152459D01*
X106500Y159081D02*
Y180000D01*
Y159081D02*
X113081Y152500D01*
X113500D01*
X95000Y121820D02*
Y132500D01*
X46050Y161450D02*
X68450D01*
X41500Y166000D02*
X46050Y161450D01*
X41500Y166000D02*
Y180000D01*
X63500D02*
X88500D01*
X75000Y55000D02*
Y60000D01*
X67000Y68000D02*
X75000Y60000D01*
X64250Y68000D02*
X67000D01*
X82929Y127929D02*
Y146971D01*
X68450Y161450D02*
X82929Y146971D01*
X79000Y124000D02*
X82929Y127929D01*
X64250Y132000D02*
X67000D01*
X75000Y140000D01*
Y145000D01*
X42500Y82500D02*
Y117500D01*
Y82500D02*
X49040Y75960D01*
X57500D01*
X42500Y117500D02*
X48960Y123960D01*
X64210D01*
X64250Y124000D01*
D55*
X105155Y86845D02*
X112286D01*
X85155Y106845D02*
X105155Y86845D01*
X83627Y103155D02*
X103627Y83155D01*
X70145Y106845D02*
X85155D01*
X103627Y83155D02*
X112286D01*
X70145Y103155D02*
X83627D01*
X63595Y98155D02*
X64250Y97500D01*
X63595Y106845D02*
X64250Y107500D01*
X57322Y106845D02*
X63595D01*
X55655Y105178D02*
X57322Y106845D01*
X55655Y99822D02*
X57322Y98155D01*
X63595D01*
X55655Y99822D02*
Y105178D01*
X71178Y101845D02*
X72845Y100178D01*
Y94822D02*
Y100178D01*
X64905Y93155D02*
X71178D01*
X72845Y94822D01*
X64250Y102500D02*
X64905Y101845D01*
X71178D01*
X64250Y92500D02*
X64905Y93155D01*
X112286Y86845D02*
X117992Y92551D01*
X124398D01*
X126348Y94500D01*
X64250Y102500D02*
X64905Y103155D01*
X70145D01*
X64250Y107500D02*
X64905Y106845D01*
X70145Y103155D02*
X70145Y103155D01*
X64905Y106845D02*
X70145D01*
X70145Y106845D01*
X124398Y77449D02*
X126348Y75500D01*
X112286Y83155D02*
X117992Y77449D01*
X124398D01*
D56*
X159764Y90744D02*
X161492Y89016D01*
Y88063D02*
X162605Y86950D01*
X212716Y58150D02*
X220550Y65984D01*
X172374Y62918D02*
X177143Y58150D01*
X220550Y65984D02*
Y74778D01*
X220550Y74778D02*
X220550Y74778D01*
X220550Y74778D02*
Y78450D01*
X161492Y81937D02*
X162605Y83050D01*
X161492Y80984D02*
Y81937D01*
X165794Y86950D02*
X172374Y80370D01*
X214331Y54250D02*
X224450Y64369D01*
X168474Y61303D02*
X175527Y54250D01*
X161492Y88063D02*
Y89016D01*
X224450Y64369D02*
Y74778D01*
X159504Y79256D02*
X159764D01*
X153652Y94500D02*
X155748D01*
X224450Y74778D02*
X224450Y74778D01*
X164179Y83050D02*
X168474Y78755D01*
X159504Y90744D02*
X159764D01*
X168474Y61303D02*
Y78755D01*
X162605Y83050D02*
X164179D01*
X162605Y86950D02*
X165794D01*
X224450Y78450D02*
X225000Y79000D01*
X224450Y74778D02*
Y78450D01*
X155748Y94500D02*
X159504Y90744D01*
X153652Y75500D02*
X155748D01*
X175527Y54250D02*
X214331D01*
X177143Y58150D02*
X212716D01*
X172374Y62918D02*
Y80370D01*
X155748Y75500D02*
X159504Y79256D01*
X159764D02*
X161492Y80984D01*
X220000Y79000D02*
X220550Y78450D01*
D57*
X299500Y173500D02*
D03*
X317500Y170000D02*
D03*
X185000Y122500D02*
D03*
X137500Y127500D02*
D03*
X262500Y35000D02*
D03*
X210000Y92500D02*
D03*
X225000D02*
D03*
Y107500D02*
D03*
X210000D02*
D03*
X215000Y157500D02*
D03*
X95000Y165000D02*
D03*
X470000Y85000D02*
D03*
X481250D02*
D03*
X492500D02*
D03*
Y115000D02*
D03*
X481250D02*
D03*
X470000D02*
D03*
X372500Y195000D02*
D03*
X382500D02*
D03*
X392500D02*
D03*
X402500D02*
D03*
X412500D02*
D03*
X422500D02*
D03*
X432500D02*
D03*
X442500D02*
D03*
X452500D02*
D03*
X462500D02*
D03*
X472500D02*
D03*
X485000Y194000D02*
D03*
X492500Y187500D02*
D03*
X495000Y177500D02*
D03*
Y167500D02*
D03*
Y160000D02*
D03*
Y150000D02*
D03*
X362500Y195000D02*
D03*
X495000Y52500D02*
D03*
Y42500D02*
D03*
Y32500D02*
D03*
Y22500D02*
D03*
X492500Y12500D02*
D03*
X485000Y7500D02*
D03*
X475000Y5000D02*
D03*
X465000D02*
D03*
X455000D02*
D03*
X445000D02*
D03*
X435000D02*
D03*
X425000D02*
D03*
X415000D02*
D03*
X405000D02*
D03*
X395000D02*
D03*
X385000D02*
D03*
X375000D02*
D03*
X363000D02*
D03*
X362500Y17500D02*
D03*
Y30000D02*
D03*
Y40000D02*
D03*
Y50000D02*
D03*
Y60000D02*
D03*
Y70000D02*
D03*
Y80000D02*
D03*
Y180000D02*
D03*
Y170000D02*
D03*
Y160000D02*
D03*
Y150000D02*
D03*
Y140000D02*
D03*
Y130000D02*
D03*
Y120000D02*
D03*
Y110000D02*
D03*
X385000Y49000D02*
D03*
Y62000D02*
D03*
X410000Y137500D02*
D03*
X322500Y17500D02*
D03*
X320000Y5000D02*
D03*
X247500Y55000D02*
D03*
X257500Y5000D02*
D03*
X267500D02*
D03*
X277500D02*
D03*
X287500D02*
D03*
X297500D02*
D03*
X307500D02*
D03*
X332500D02*
D03*
Y15000D02*
D03*
Y25000D02*
D03*
Y35000D02*
D03*
Y45000D02*
D03*
Y55000D02*
D03*
X322500D02*
D03*
X312500D02*
D03*
X282500Y55000D02*
D03*
X267500D02*
D03*
X257500D02*
D03*
X247500Y45000D02*
D03*
Y35000D02*
D03*
Y25000D02*
D03*
Y15000D02*
D03*
Y5000D02*
D03*
X282500Y67500D02*
D03*
X344000Y135000D02*
D03*
X330000Y108000D02*
D03*
X332000Y157000D02*
D03*
X316000D02*
D03*
X282000Y175000D02*
D03*
X270000Y125000D02*
D03*
X279000Y147000D02*
D03*
X255300Y67500D02*
D03*
X65000Y45000D02*
D03*
X141000Y85000D02*
D03*
X179000Y67000D02*
D03*
X81000Y119000D02*
D03*
X118000Y85000D02*
D03*
X178000D02*
D03*
X211000Y67000D02*
D03*
X92500Y52500D02*
D03*
X107500D02*
D03*
X120000D02*
D03*
X257861Y82219D02*
D03*
X260000Y98060D02*
D03*
Y175000D02*
D03*
X270000D02*
D03*
Y185000D02*
D03*
X250000Y122500D02*
D03*
X258000Y156000D02*
D03*
X225000Y145000D02*
D03*
X206000Y140000D02*
D03*
X259300Y185000D02*
D03*
X140000D02*
D03*
X167500Y157500D02*
D03*
X178000Y118000D02*
D03*
Y125000D02*
D03*
Y132000D02*
D03*
X170000Y118000D02*
D03*
X160000D02*
D03*
X150000D02*
D03*
X120000Y122500D02*
D03*
Y132500D02*
D03*
X112500Y122500D02*
D03*
X105000D02*
D03*
X95000Y132500D02*
D03*
X112500D02*
D03*
X105000D02*
D03*
X92500Y62500D02*
D03*
X75000Y55000D02*
D03*
Y145000D02*
D03*
D58*
X295500Y94500D02*
D03*
X284500D02*
D03*
X295500Y105500D02*
D03*
X284500D02*
D03*
M02*
