G04*
G04 #@! TF.GenerationSoftware,Altium Limited,Altium Designer,22.1.2 (22)*
G04*
G04 Layer_Color=8388736*
%FSLAX44Y44*%
%MOMM*%
G71*
G04*
G04 #@! TF.SameCoordinates,873FB45C-190C-4682-B26A-08C162FF856E*
G04*
G04*
G04 #@! TF.FilePolarity,Negative*
G04*
G01*
G75*
%ADD15R,0.8000X0.8000*%
%ADD19R,0.9779X0.5588*%
%ADD26R,1.3970X0.9398*%
%ADD28R,0.3000X0.6000*%
%ADD29R,0.6000X0.3000*%
%ADD30R,3.4500X3.4500*%
%ADD31R,3.6000X1.2700*%
%ADD32R,4.2000X1.3500*%
%ADD33R,0.8000X1.2000*%
%ADD34R,0.7112X0.5588*%
%ADD35R,0.4918X1.1064*%
%ADD36R,1.0000X1.5000*%
%ADD37R,1.1500X0.6000*%
%ADD38R,1.1500X0.3000*%
%ADD39R,0.9940X1.1340*%
G04:AMPARAMS|DCode=40|XSize=0.744mm|YSize=0.804mm|CornerRadius=0.2451mm|HoleSize=0mm|Usage=FLASHONLY|Rotation=90.000|XOffset=0mm|YOffset=0mm|HoleType=Round|Shape=RoundedRectangle|*
%AMROUNDEDRECTD40*
21,1,0.7440,0.3138,0,0,90.0*
21,1,0.2538,0.8040,0,0,90.0*
1,1,0.4902,0.1569,0.1269*
1,1,0.4902,0.1569,-0.1269*
1,1,0.4902,-0.1569,-0.1269*
1,1,0.4902,-0.1569,0.1269*
%
%ADD40ROUNDEDRECTD40*%
%ADD41R,0.7440X0.8040*%
G04:AMPARAMS|DCode=42|XSize=1.3032mm|YSize=1.2032mm|CornerRadius=0.3666mm|HoleSize=0mm|Usage=FLASHONLY|Rotation=180.000|XOffset=0mm|YOffset=0mm|HoleType=Round|Shape=RoundedRectangle|*
%AMROUNDEDRECTD42*
21,1,1.3032,0.4700,0,0,180.0*
21,1,0.5700,1.2032,0,0,180.0*
1,1,0.7332,-0.2850,0.2350*
1,1,0.7332,0.2850,0.2350*
1,1,0.7332,0.2850,-0.2350*
1,1,0.7332,-0.2850,-0.2350*
%
%ADD42ROUNDEDRECTD42*%
G04:AMPARAMS|DCode=43|XSize=1.3032mm|YSize=1.2032mm|CornerRadius=0.3666mm|HoleSize=0mm|Usage=FLASHONLY|Rotation=270.000|XOffset=0mm|YOffset=0mm|HoleType=Round|Shape=RoundedRectangle|*
%AMROUNDEDRECTD43*
21,1,1.3032,0.4700,0,0,270.0*
21,1,0.5700,1.2032,0,0,270.0*
1,1,0.7332,-0.2350,-0.2850*
1,1,0.7332,-0.2350,0.2850*
1,1,0.7332,0.2350,0.2850*
1,1,0.7332,0.2350,-0.2850*
%
%ADD43ROUNDEDRECTD43*%
G04:AMPARAMS|DCode=44|XSize=0.744mm|YSize=0.804mm|CornerRadius=0.2451mm|HoleSize=0mm|Usage=FLASHONLY|Rotation=0.000|XOffset=0mm|YOffset=0mm|HoleType=Round|Shape=RoundedRectangle|*
%AMROUNDEDRECTD44*
21,1,0.7440,0.3138,0,0,0.0*
21,1,0.2538,0.8040,0,0,0.0*
1,1,0.4902,0.1269,-0.1569*
1,1,0.4902,-0.1269,-0.1569*
1,1,0.4902,-0.1269,0.1569*
1,1,0.4902,0.1269,0.1569*
%
%ADD44ROUNDEDRECTD44*%
%ADD45O,0.2400X0.7900*%
%ADD46O,0.7900X0.2400*%
%ADD47R,0.8040X0.7440*%
%ADD48R,2.8032X2.8032*%
%ADD49C,1.3970*%
G04:AMPARAMS|DCode=50|XSize=1mm|YSize=2.2mm|CornerRadius=0.5mm|HoleSize=0mm|Usage=FLASHONLY|Rotation=270.000|XOffset=0mm|YOffset=0mm|HoleType=Round|Shape=RoundedRectangle|*
%AMROUNDEDRECTD50*
21,1,1.0000,1.2000,0,0,270.0*
21,1,0.0000,2.2000,0,0,270.0*
1,1,1.0000,-0.6000,0.0000*
1,1,1.0000,-0.6000,0.0000*
1,1,1.0000,0.6000,0.0000*
1,1,1.0000,0.6000,0.0000*
%
%ADD50ROUNDEDRECTD50*%
G04:AMPARAMS|DCode=51|XSize=1mm|YSize=1.8mm|CornerRadius=0.5mm|HoleSize=0mm|Usage=FLASHONLY|Rotation=270.000|XOffset=0mm|YOffset=0mm|HoleType=Round|Shape=RoundedRectangle|*
%AMROUNDEDRECTD51*
21,1,1.0000,0.8000,0,0,270.0*
21,1,0.0000,1.8000,0,0,270.0*
1,1,1.0000,-0.4000,0.0000*
1,1,1.0000,-0.4000,0.0000*
1,1,1.0000,0.4000,0.0000*
1,1,1.0000,0.4000,0.0000*
%
%ADD51ROUNDEDRECTD51*%
%ADD52C,0.7032*%
D15*
X330000Y170000D02*
D03*
Y185000D02*
D03*
X207500D02*
D03*
Y170000D02*
D03*
X187500D02*
D03*
Y185000D02*
D03*
D19*
X153652Y75500D02*
D03*
Y85000D02*
D03*
Y94500D02*
D03*
X126348D02*
D03*
Y85000D02*
D03*
Y75500D02*
D03*
D26*
X302993Y17750D02*
D03*
Y34250D02*
D03*
X276831D02*
D03*
Y17750D02*
D03*
D28*
X235000Y126000D02*
D03*
X230000D02*
D03*
X225000D02*
D03*
X220000D02*
D03*
X215000D02*
D03*
X210000D02*
D03*
X205000D02*
D03*
X200000D02*
D03*
Y79000D02*
D03*
X205000D02*
D03*
X210000D02*
D03*
X215000D02*
D03*
X220000D02*
D03*
X225000D02*
D03*
X230000D02*
D03*
X235000D02*
D03*
D29*
X241000Y85000D02*
D03*
Y90000D02*
D03*
Y95000D02*
D03*
Y100000D02*
D03*
Y105000D02*
D03*
Y110000D02*
D03*
Y115000D02*
D03*
Y120000D02*
D03*
X194000D02*
D03*
Y115000D02*
D03*
Y110000D02*
D03*
Y105000D02*
D03*
Y100000D02*
D03*
Y95000D02*
D03*
Y90000D02*
D03*
Y85000D02*
D03*
D30*
X217500Y102500D02*
D03*
D31*
X483400Y100000D02*
D03*
D32*
X481400Y128250D02*
D03*
Y71750D02*
D03*
D33*
X106500Y180000D02*
D03*
X88500D02*
D03*
D34*
X394586Y120000D02*
D03*
X405000D02*
D03*
X394793Y100000D02*
D03*
X405207D02*
D03*
X394793Y82500D02*
D03*
X405207D02*
D03*
D35*
X140000Y151938D02*
D03*
X149500Y128062D02*
D03*
X130500D02*
D03*
D36*
X63500Y180000D02*
D03*
X41500D02*
D03*
D37*
X64250Y68000D02*
D03*
Y132000D02*
D03*
Y124000D02*
D03*
Y76000D02*
D03*
D38*
Y82500D02*
D03*
Y87500D02*
D03*
Y92500D02*
D03*
Y97500D02*
D03*
Y102500D02*
D03*
Y107500D02*
D03*
Y112500D02*
D03*
Y117500D02*
D03*
D39*
X299300Y185000D02*
D03*
X315700D02*
D03*
X151800D02*
D03*
X168200D02*
D03*
X247500D02*
D03*
X231100D02*
D03*
D40*
X262500Y18200D02*
D03*
Y26800D02*
D03*
X65000Y36300D02*
D03*
Y27700D02*
D03*
X322500Y26700D02*
D03*
Y35300D02*
D03*
X279000Y138300D02*
D03*
Y129700D02*
D03*
X247500Y155700D02*
D03*
Y164300D02*
D03*
X232500D02*
D03*
Y155700D02*
D03*
X215000Y149300D02*
D03*
Y140700D02*
D03*
X332000Y143300D02*
D03*
Y134700D02*
D03*
D41*
X302232Y49000D02*
D03*
X293592D02*
D03*
D42*
X299500Y161000D02*
D03*
X282500D02*
D03*
X113500Y152500D02*
D03*
X96500D02*
D03*
D43*
X168000Y145500D02*
D03*
Y128500D02*
D03*
D44*
X420700Y120000D02*
D03*
X429300D02*
D03*
X420700Y137500D02*
D03*
X429300D02*
D03*
X405300Y49000D02*
D03*
X396700D02*
D03*
Y62000D02*
D03*
X405300D02*
D03*
X200300Y67000D02*
D03*
X191700D02*
D03*
X265000Y67500D02*
D03*
X273600D02*
D03*
X289700Y136000D02*
D03*
X298300D02*
D03*
D45*
X295000Y81000D02*
D03*
X290000D02*
D03*
X285000D02*
D03*
X280000D02*
D03*
X300000D02*
D03*
Y119000D02*
D03*
X290000D02*
D03*
X295000D02*
D03*
X280000D02*
D03*
X285000D02*
D03*
D46*
X271000Y90000D02*
D03*
Y95000D02*
D03*
X309000D02*
D03*
Y90000D02*
D03*
Y100000D02*
D03*
Y105000D02*
D03*
Y110000D02*
D03*
X271000Y100000D02*
D03*
Y105000D02*
D03*
Y110000D02*
D03*
D47*
X316000Y144320D02*
D03*
Y135680D02*
D03*
X270000Y155680D02*
D03*
Y164320D02*
D03*
X95000Y113180D02*
D03*
Y121820D02*
D03*
X92500Y81820D02*
D03*
Y73180D02*
D03*
D48*
X290000Y100000D02*
D03*
D49*
X195800Y27500D02*
D03*
X170400D02*
D03*
X145000D02*
D03*
X119600D02*
D03*
X94200D02*
D03*
D50*
X18500Y143200D02*
D03*
Y56800D02*
D03*
D51*
X58500Y143200D02*
D03*
Y56800D02*
D03*
D52*
X295500Y94500D02*
D03*
X284500D02*
D03*
X295500Y105500D02*
D03*
X284500D02*
D03*
M02*
