G04*
G04 #@! TF.GenerationSoftware,Altium Limited,Altium Designer,22.1.2 (22)*
G04*
G04 Layer_Color=32896*
%FSLAX44Y44*%
%MOMM*%
G71*
G04*
G04 #@! TF.SameCoordinates,873FB45C-190C-4682-B26A-08C162FF856E*
G04*
G04*
G04 #@! TF.FilePolarity,Positive*
G04*
G01*
G75*
%ADD11C,0.5080*%
%ADD14C,0.1500*%
D11*
X199610Y46550D02*
G03*
X199610Y46550I-3810J0D01*
G01*
D14*
X208999Y36500D02*
Y39832D01*
X210665Y38166D02*
X207333D01*
X210665Y41498D02*
X211498Y42331D01*
Y43998D01*
X210665Y44831D01*
X209832D01*
X208999Y43998D01*
Y43165D01*
Y43998D01*
X208166Y44831D01*
X207333D01*
X206500Y43998D01*
Y42331D01*
X207333Y41498D01*
X211498Y46497D02*
X208166D01*
X206500Y48163D01*
X208166Y49829D01*
X211498D01*
X210665Y51495D02*
X211498Y52328D01*
Y53994D01*
X210665Y54827D01*
X209832D01*
X208999Y53994D01*
Y53161D01*
Y53994D01*
X208166Y54827D01*
X207333D01*
X206500Y53994D01*
Y52328D01*
X207333Y51495D01*
X180665Y39832D02*
X181498Y38999D01*
Y37333D01*
X180665Y36500D01*
X179832D01*
X178999Y37333D01*
Y38999D01*
X178166Y39832D01*
X177333D01*
X176500Y38999D01*
Y37333D01*
X177333Y36500D01*
X181498Y41498D02*
X176500D01*
X178166Y43164D01*
X176500Y44831D01*
X181498D01*
Y46497D02*
X176500D01*
Y48996D01*
X177333Y49829D01*
X180665D01*
X181498Y48996D01*
Y46497D01*
Y51495D02*
Y53161D01*
Y52328D01*
X176500D01*
Y51495D01*
Y53161D01*
X181498Y58159D02*
Y56493D01*
X180665Y55660D01*
X177333D01*
X176500Y56493D01*
Y58159D01*
X177333Y58993D01*
X180665D01*
X181498Y58159D01*
X155665Y39832D02*
X156498Y38999D01*
Y37333D01*
X155665Y36500D01*
X154832D01*
X153999Y37333D01*
Y38999D01*
X153166Y39832D01*
X152333D01*
X151500Y38999D01*
Y37333D01*
X152333Y36500D01*
X156498Y41498D02*
X151500D01*
X153166Y43164D01*
X151500Y44831D01*
X156498D01*
X155665Y49829D02*
X156498Y48996D01*
Y47330D01*
X155665Y46497D01*
X152333D01*
X151500Y47330D01*
Y48996D01*
X152333Y49829D01*
X156498Y51495D02*
X151500D01*
Y54827D01*
X156498Y56493D02*
X151500D01*
X153166D01*
X156498Y59826D01*
X153999Y57326D01*
X151500Y59826D01*
X130665Y42332D02*
X131498Y41499D01*
Y39833D01*
X130665Y39000D01*
X127333D01*
X126500Y39833D01*
Y41499D01*
X127333Y42332D01*
X128999D01*
Y40666D01*
X126500Y43998D02*
X131498D01*
X126500Y47331D01*
X131498D01*
Y48997D02*
X126500D01*
Y51496D01*
X127333Y52329D01*
X130665D01*
X131498Y51496D01*
Y48997D01*
X99000Y39000D02*
X103998D01*
Y41499D01*
X103165Y42332D01*
X101499D01*
X100666Y41499D01*
Y39000D01*
Y40666D02*
X99000Y42332D01*
X103165Y47331D02*
X103998Y46498D01*
Y44831D01*
X103165Y43998D01*
X102332D01*
X101499Y44831D01*
Y46498D01*
X100666Y47331D01*
X99833D01*
X99000Y46498D01*
Y44831D01*
X99833Y43998D01*
X103998Y48997D02*
Y52329D01*
Y50663D01*
X99000D01*
Y53995D02*
X103998D01*
X99000Y57327D01*
X103998D01*
M02*
