G04*
G04 #@! TF.GenerationSoftware,Altium Limited,Altium Designer,22.1.2 (22)*
G04*
G04 Layer_Color=16711935*
%FSLAX44Y44*%
%MOMM*%
G71*
G04*
G04 #@! TF.SameCoordinates,873FB45C-190C-4682-B26A-08C162FF856E*
G04*
G04*
G04 #@! TF.FilePolarity,Positive*
G04*
G01*
G75*
%ADD13C,0.2000*%
G36*
X334626Y175041D02*
X334617Y174874D01*
X334608Y174689D01*
X334590Y174504D01*
X334562Y174319D01*
X334534Y174162D01*
Y174153D01*
X334525Y174135D01*
Y174107D01*
X334506Y174070D01*
X334478Y173968D01*
X334432Y173839D01*
X334368Y173691D01*
X334284Y173534D01*
X334192Y173376D01*
X334072Y173228D01*
X334062Y173219D01*
X334053Y173210D01*
X334025Y173182D01*
X333998Y173145D01*
X333905Y173053D01*
X333776Y172942D01*
X333619Y172822D01*
X333434Y172692D01*
X333221Y172572D01*
X332981Y172470D01*
X332971D01*
X332953Y172461D01*
X332916Y172443D01*
X332860Y172433D01*
X332796Y172406D01*
X332722Y172387D01*
X332639Y172369D01*
X332537Y172341D01*
X332435Y172313D01*
X332315Y172295D01*
X332056Y172248D01*
X331769Y172221D01*
X331455Y172211D01*
X331446D01*
X331427D01*
X331381D01*
X331335D01*
X331270Y172221D01*
X331196D01*
X331021Y172230D01*
X330817Y172258D01*
X330605Y172285D01*
X330383Y172332D01*
X330161Y172387D01*
X330152D01*
X330133Y172396D01*
X330105Y172406D01*
X330068Y172415D01*
X329967Y172452D01*
X329837Y172507D01*
X329689Y172563D01*
X329541Y172637D01*
X329384Y172729D01*
X329236Y172822D01*
X329218Y172831D01*
X329171Y172868D01*
X329107Y172923D01*
X329024Y172997D01*
X328931Y173081D01*
X328839Y173182D01*
X328737Y173284D01*
X328654Y173404D01*
X328644Y173423D01*
X328617Y173460D01*
X328580Y173524D01*
X328534Y173617D01*
X328478Y173728D01*
X328432Y173857D01*
X328376Y174005D01*
X328330Y174172D01*
Y174190D01*
X328321Y174218D01*
X328312Y174245D01*
X328302Y174338D01*
X328284Y174467D01*
X328265Y174615D01*
X328247Y174791D01*
X328238Y174985D01*
X328228Y175198D01*
Y177500D01*
X334626D01*
Y175041D01*
D02*
G37*
G36*
X330022Y170575D02*
X330013D01*
X329994Y170566D01*
X329957Y170557D01*
X329911Y170547D01*
X329856Y170538D01*
X329791Y170520D01*
X329652Y170473D01*
X329486Y170409D01*
X329329Y170325D01*
X329181Y170233D01*
X329051Y170122D01*
X329042Y170103D01*
X329005Y170067D01*
X328959Y169993D01*
X328913Y169900D01*
X328857Y169789D01*
X328811Y169650D01*
X328774Y169493D01*
X328765Y169327D01*
Y169271D01*
X328774Y169234D01*
X328783Y169133D01*
X328811Y169003D01*
X328857Y168855D01*
X328922Y168698D01*
X329014Y168541D01*
X329144Y168393D01*
X329162Y168375D01*
X329218Y168328D01*
X329301Y168273D01*
X329412Y168199D01*
X329551Y168125D01*
X329708Y168069D01*
X329893Y168023D01*
X330096Y168005D01*
X330105D01*
X330124D01*
X330152D01*
X330188Y168014D01*
X330290Y168023D01*
X330410Y168051D01*
X330558Y168088D01*
X330706Y168153D01*
X330854Y168245D01*
X330993Y168365D01*
X331011Y168384D01*
X331048Y168430D01*
X331104Y168504D01*
X331169Y168606D01*
X331233Y168735D01*
X331289Y168892D01*
X331326Y169068D01*
X331344Y169262D01*
Y169345D01*
X331335Y169410D01*
X331326Y169493D01*
X331307Y169586D01*
X331289Y169697D01*
X331261Y169817D01*
X331954Y169724D01*
Y169678D01*
X331945Y169641D01*
Y169521D01*
X331964Y169419D01*
X331982Y169299D01*
X332010Y169160D01*
X332056Y169003D01*
X332121Y168855D01*
X332204Y168698D01*
Y168689D01*
X332213Y168680D01*
X332250Y168633D01*
X332315Y168569D01*
X332398Y168495D01*
X332518Y168421D01*
X332657Y168356D01*
X332814Y168310D01*
X332907Y168291D01*
X333008D01*
X333018D01*
X333027D01*
X333082D01*
X333156Y168310D01*
X333258Y168328D01*
X333369Y168365D01*
X333489Y168412D01*
X333609Y168486D01*
X333720Y168587D01*
X333730Y168596D01*
X333767Y168643D01*
X333813Y168707D01*
X333868Y168791D01*
X333914Y168902D01*
X333961Y169031D01*
X333998Y169179D01*
X334007Y169345D01*
Y169419D01*
X333988Y169503D01*
X333970Y169613D01*
X333933Y169734D01*
X333887Y169854D01*
X333813Y169983D01*
X333720Y170103D01*
X333711Y170113D01*
X333665Y170150D01*
X333600Y170205D01*
X333508Y170270D01*
X333387Y170335D01*
X333240Y170399D01*
X333064Y170455D01*
X332860Y170492D01*
X332999Y171278D01*
X333008D01*
X333036Y171268D01*
X333073Y171259D01*
X333129Y171250D01*
X333193Y171231D01*
X333267Y171204D01*
X333443Y171148D01*
X333646Y171056D01*
X333850Y170945D01*
X334044Y170806D01*
X334220Y170630D01*
X334229Y170621D01*
X334238Y170603D01*
X334257Y170575D01*
X334284Y170538D01*
X334321Y170492D01*
X334358Y170427D01*
X334395Y170362D01*
X334441Y170279D01*
X334515Y170094D01*
X334590Y169882D01*
X334636Y169632D01*
X334654Y169503D01*
Y169271D01*
X334645Y169170D01*
X334626Y169049D01*
X334599Y168902D01*
X334552Y168735D01*
X334497Y168569D01*
X334423Y168402D01*
Y168393D01*
X334414Y168384D01*
X334386Y168328D01*
X334331Y168245D01*
X334266Y168153D01*
X334173Y168042D01*
X334072Y167931D01*
X333951Y167820D01*
X333813Y167727D01*
X333794Y167718D01*
X333748Y167690D01*
X333665Y167653D01*
X333563Y167607D01*
X333443Y167561D01*
X333304Y167524D01*
X333147Y167496D01*
X332990Y167487D01*
X332971D01*
X332916D01*
X332842Y167496D01*
X332740Y167515D01*
X332620Y167542D01*
X332491Y167589D01*
X332361Y167644D01*
X332232Y167718D01*
X332213Y167727D01*
X332176Y167755D01*
X332112Y167811D01*
X332038Y167885D01*
X331954Y167977D01*
X331862Y168088D01*
X331779Y168217D01*
X331696Y168375D01*
Y168365D01*
X331686Y168347D01*
X331677Y168319D01*
X331668Y168282D01*
X331631Y168180D01*
X331575Y168051D01*
X331501Y167903D01*
X331409Y167755D01*
X331289Y167616D01*
X331150Y167487D01*
X331132Y167478D01*
X331076Y167441D01*
X330984Y167385D01*
X330863Y167330D01*
X330715Y167274D01*
X330540Y167219D01*
X330336Y167182D01*
X330115Y167173D01*
X330105D01*
X330078D01*
X330031D01*
X329976Y167182D01*
X329902Y167191D01*
X329819Y167210D01*
X329726Y167228D01*
X329625Y167247D01*
X329403Y167321D01*
X329282Y167376D01*
X329171Y167432D01*
X329051Y167505D01*
X328931Y167589D01*
X328811Y167681D01*
X328700Y167792D01*
X328691Y167801D01*
X328672Y167820D01*
X328644Y167857D01*
X328607Y167903D01*
X328561Y167959D01*
X328515Y168032D01*
X328460Y168116D01*
X328413Y168217D01*
X328358Y168319D01*
X328302Y168439D01*
X328256Y168559D01*
X328210Y168698D01*
X328173Y168846D01*
X328145Y169003D01*
X328127Y169160D01*
X328117Y169336D01*
Y169419D01*
X328127Y169475D01*
X328136Y169549D01*
X328145Y169632D01*
X328164Y169724D01*
X328182Y169826D01*
X328238Y170048D01*
X328330Y170279D01*
X328386Y170399D01*
X328450Y170510D01*
X328534Y170621D01*
X328617Y170732D01*
X328626Y170741D01*
X328644Y170760D01*
X328672Y170788D01*
X328709Y170815D01*
X328755Y170862D01*
X328820Y170908D01*
X328885Y170963D01*
X328968Y171019D01*
X329061Y171074D01*
X329153Y171130D01*
X329375Y171231D01*
X329634Y171315D01*
X329772Y171342D01*
X329920Y171361D01*
X330022Y170575D01*
D02*
G37*
G36*
X212015Y175041D02*
X212006Y174874D01*
X211997Y174689D01*
X211978Y174504D01*
X211951Y174319D01*
X211923Y174162D01*
Y174153D01*
X211914Y174135D01*
Y174107D01*
X211895Y174070D01*
X211868Y173968D01*
X211821Y173839D01*
X211757Y173691D01*
X211673Y173534D01*
X211581Y173376D01*
X211461Y173228D01*
X211451Y173219D01*
X211442Y173210D01*
X211415Y173182D01*
X211387Y173145D01*
X211294Y173053D01*
X211165Y172942D01*
X211008Y172822D01*
X210823Y172692D01*
X210610Y172572D01*
X210370Y172470D01*
X210361D01*
X210342Y172461D01*
X210305Y172443D01*
X210250Y172433D01*
X210185Y172406D01*
X210111Y172387D01*
X210028Y172369D01*
X209926Y172341D01*
X209824Y172313D01*
X209704Y172295D01*
X209445Y172248D01*
X209159Y172221D01*
X208844Y172211D01*
X208835D01*
X208817D01*
X208770D01*
X208724D01*
X208659Y172221D01*
X208585D01*
X208410Y172230D01*
X208206Y172258D01*
X207994Y172285D01*
X207772Y172332D01*
X207550Y172387D01*
X207541D01*
X207522Y172396D01*
X207494Y172406D01*
X207457Y172415D01*
X207356Y172452D01*
X207226Y172507D01*
X207078Y172563D01*
X206930Y172637D01*
X206773Y172729D01*
X206625Y172822D01*
X206607Y172831D01*
X206561Y172868D01*
X206496Y172923D01*
X206413Y172997D01*
X206320Y173081D01*
X206228Y173182D01*
X206126Y173284D01*
X206043Y173404D01*
X206034Y173423D01*
X206006Y173460D01*
X205969Y173524D01*
X205923Y173617D01*
X205867Y173728D01*
X205821Y173857D01*
X205765Y174005D01*
X205719Y174172D01*
Y174190D01*
X205710Y174218D01*
X205701Y174245D01*
X205692Y174338D01*
X205673Y174467D01*
X205655Y174615D01*
X205636Y174791D01*
X205627Y174985D01*
X205618Y175198D01*
Y177500D01*
X212015D01*
Y175041D01*
D02*
G37*
G36*
X210434Y170760D02*
X210453Y170741D01*
X210462Y170704D01*
X210490Y170658D01*
X210518Y170603D01*
X210555Y170538D01*
X210647Y170381D01*
X210749Y170196D01*
X210878Y170011D01*
X211026Y169817D01*
X211183Y169623D01*
X211193Y169613D01*
X211202Y169604D01*
X211230Y169576D01*
X211257Y169540D01*
X211350Y169456D01*
X211461Y169345D01*
X211590Y169234D01*
X211738Y169114D01*
X211886Y169013D01*
X212043Y168920D01*
Y168412D01*
X205618D01*
Y169197D01*
X210619D01*
X210610Y169207D01*
X210573Y169253D01*
X210518Y169308D01*
X210453Y169401D01*
X210370Y169503D01*
X210277Y169632D01*
X210176Y169780D01*
X210074Y169946D01*
Y169956D01*
X210065Y169965D01*
X210028Y170020D01*
X209981Y170113D01*
X209926Y170224D01*
X209861Y170353D01*
X209797Y170492D01*
X209732Y170630D01*
X209676Y170769D01*
X210434D01*
Y170760D01*
D02*
G37*
G36*
X192015Y175041D02*
X192006Y174874D01*
X191997Y174689D01*
X191978Y174504D01*
X191951Y174319D01*
X191923Y174162D01*
Y174153D01*
X191914Y174135D01*
Y174107D01*
X191895Y174070D01*
X191868Y173968D01*
X191821Y173839D01*
X191757Y173691D01*
X191673Y173534D01*
X191581Y173376D01*
X191461Y173228D01*
X191451Y173219D01*
X191442Y173210D01*
X191415Y173182D01*
X191387Y173145D01*
X191294Y173053D01*
X191165Y172942D01*
X191008Y172822D01*
X190823Y172692D01*
X190610Y172572D01*
X190370Y172470D01*
X190361D01*
X190342Y172461D01*
X190305Y172443D01*
X190250Y172433D01*
X190185Y172406D01*
X190111Y172387D01*
X190028Y172369D01*
X189926Y172341D01*
X189824Y172313D01*
X189704Y172295D01*
X189445Y172248D01*
X189159Y172221D01*
X188844Y172211D01*
X188835D01*
X188817D01*
X188770D01*
X188724D01*
X188659Y172221D01*
X188585D01*
X188410Y172230D01*
X188206Y172258D01*
X187994Y172285D01*
X187772Y172332D01*
X187550Y172387D01*
X187541D01*
X187522Y172396D01*
X187494Y172406D01*
X187457Y172415D01*
X187356Y172452D01*
X187226Y172507D01*
X187078Y172563D01*
X186930Y172637D01*
X186773Y172729D01*
X186625Y172822D01*
X186607Y172831D01*
X186561Y172868D01*
X186496Y172923D01*
X186413Y172997D01*
X186320Y173081D01*
X186228Y173182D01*
X186126Y173284D01*
X186043Y173404D01*
X186034Y173423D01*
X186006Y173460D01*
X185969Y173524D01*
X185923Y173617D01*
X185867Y173728D01*
X185821Y173857D01*
X185765Y174005D01*
X185719Y174172D01*
Y174190D01*
X185710Y174218D01*
X185701Y174245D01*
X185692Y174338D01*
X185673Y174467D01*
X185655Y174615D01*
X185636Y174791D01*
X185627Y174985D01*
X185618Y175198D01*
Y177500D01*
X192015D01*
Y175041D01*
D02*
G37*
G36*
X185793Y171472D02*
X185876Y171463D01*
X185969Y171444D01*
X186061Y171426D01*
X186163Y171389D01*
X186172D01*
X186182Y171379D01*
X186237Y171361D01*
X186320Y171324D01*
X186431Y171268D01*
X186561Y171194D01*
X186709Y171102D01*
X186856Y171000D01*
X187014Y170871D01*
X187023D01*
X187032Y170852D01*
X187088Y170806D01*
X187171Y170723D01*
X187291Y170603D01*
X187430Y170464D01*
X187596Y170288D01*
X187781Y170076D01*
X187975Y169845D01*
X187984Y169835D01*
X188012Y169798D01*
X188058Y169743D01*
X188114Y169678D01*
X188188Y169595D01*
X188271Y169493D01*
X188363Y169392D01*
X188465Y169271D01*
X188687Y169040D01*
X188909Y168809D01*
X189020Y168698D01*
X189131Y168596D01*
X189233Y168504D01*
X189334Y168430D01*
X189343D01*
X189353Y168412D01*
X189380Y168393D01*
X189417Y168375D01*
X189519Y168310D01*
X189639Y168236D01*
X189787Y168171D01*
X189944Y168106D01*
X190120Y168069D01*
X190287Y168051D01*
X190296D01*
X190305D01*
X190361Y168060D01*
X190453Y168069D01*
X190555Y168097D01*
X190684Y168134D01*
X190814Y168199D01*
X190943Y168282D01*
X191072Y168393D01*
X191091Y168412D01*
X191128Y168458D01*
X191174Y168522D01*
X191239Y168624D01*
X191294Y168754D01*
X191350Y168902D01*
X191387Y169077D01*
X191396Y169271D01*
Y169327D01*
X191387Y169364D01*
X191378Y169475D01*
X191350Y169604D01*
X191313Y169743D01*
X191248Y169900D01*
X191165Y170048D01*
X191054Y170187D01*
X191035Y170205D01*
X190989Y170242D01*
X190915Y170298D01*
X190804Y170353D01*
X190675Y170418D01*
X190508Y170473D01*
X190324Y170510D01*
X190111Y170529D01*
X190194Y171333D01*
X190203D01*
X190231Y171324D01*
X190277D01*
X190342Y171315D01*
X190416Y171296D01*
X190499Y171278D01*
X190601Y171250D01*
X190703Y171222D01*
X190924Y171148D01*
X191146Y171037D01*
X191257Y170973D01*
X191368Y170889D01*
X191470Y170806D01*
X191562Y170714D01*
X191572Y170704D01*
X191581Y170686D01*
X191609Y170658D01*
X191636Y170612D01*
X191673Y170557D01*
X191710Y170492D01*
X191757Y170418D01*
X191803Y170325D01*
X191849Y170224D01*
X191895Y170113D01*
X191932Y169993D01*
X191969Y169863D01*
X191997Y169724D01*
X192025Y169576D01*
X192034Y169419D01*
X192043Y169253D01*
Y169160D01*
X192034Y169096D01*
X192025Y169022D01*
X192015Y168929D01*
X191997Y168828D01*
X191978Y168726D01*
X191914Y168486D01*
X191821Y168245D01*
X191766Y168125D01*
X191701Y168005D01*
X191618Y167894D01*
X191525Y167792D01*
X191516Y167783D01*
X191507Y167764D01*
X191470Y167746D01*
X191433Y167709D01*
X191387Y167663D01*
X191322Y167616D01*
X191257Y167570D01*
X191174Y167515D01*
X190998Y167422D01*
X190777Y167330D01*
X190666Y167293D01*
X190536Y167274D01*
X190407Y167256D01*
X190268Y167247D01*
X190250D01*
X190203D01*
X190129Y167256D01*
X190028Y167265D01*
X189917Y167284D01*
X189787Y167321D01*
X189649Y167358D01*
X189510Y167413D01*
X189491Y167422D01*
X189445Y167441D01*
X189371Y167478D01*
X189270Y167533D01*
X189159Y167607D01*
X189020Y167700D01*
X188881Y167811D01*
X188724Y167940D01*
X188706Y167959D01*
X188650Y168005D01*
X188604Y168051D01*
X188558Y168097D01*
X188502Y168153D01*
X188428Y168227D01*
X188354Y168301D01*
X188271Y168393D01*
X188179Y168486D01*
X188077Y168596D01*
X187975Y168717D01*
X187855Y168846D01*
X187735Y168994D01*
X187605Y169142D01*
X187596Y169151D01*
X187578Y169170D01*
X187550Y169207D01*
X187513Y169253D01*
X187457Y169308D01*
X187402Y169373D01*
X187282Y169521D01*
X187143Y169678D01*
X187004Y169826D01*
X186884Y169956D01*
X186838Y170011D01*
X186792Y170057D01*
X186782Y170067D01*
X186755Y170094D01*
X186718Y170131D01*
X186662Y170177D01*
X186598Y170224D01*
X186533Y170279D01*
X186376Y170390D01*
Y167237D01*
X185618D01*
Y171481D01*
X185627D01*
X185664D01*
X185719D01*
X185793Y171472D01*
D02*
G37*
G36*
X224009Y101650D02*
X220311D01*
X220301D01*
X220274D01*
X220227D01*
X220172D01*
X220107Y101640D01*
X220024D01*
X219848Y101631D01*
X219645Y101613D01*
X219442Y101585D01*
X219247Y101548D01*
X219164Y101529D01*
X219081Y101502D01*
X219062Y101492D01*
X219016Y101474D01*
X218951Y101428D01*
X218859Y101372D01*
X218766Y101307D01*
X218665Y101215D01*
X218563Y101104D01*
X218480Y100975D01*
X218471Y100956D01*
X218443Y100910D01*
X218415Y100827D01*
X218378Y100716D01*
X218332Y100586D01*
X218304Y100420D01*
X218277Y100244D01*
X218267Y100050D01*
Y99958D01*
X218277Y99902D01*
Y99819D01*
X218286Y99736D01*
X218323Y99532D01*
X218369Y99310D01*
X218443Y99098D01*
X218545Y98894D01*
X218609Y98802D01*
X218683Y98719D01*
X218693Y98709D01*
X218702Y98700D01*
X218730Y98682D01*
X218766Y98654D01*
X218822Y98626D01*
X218878Y98589D01*
X218961Y98552D01*
X219044Y98515D01*
X219146Y98478D01*
X219266Y98450D01*
X219405Y98413D01*
X219552Y98386D01*
X219719Y98358D01*
X219895Y98340D01*
X220098Y98321D01*
X220311D01*
X224009D01*
Y97471D01*
X220311D01*
X220301D01*
X220264D01*
X220218D01*
X220153D01*
X220070Y97480D01*
X219978D01*
X219867Y97489D01*
X219756Y97498D01*
X219506Y97526D01*
X219247Y97563D01*
X218998Y97618D01*
X218878Y97655D01*
X218766Y97692D01*
X218757D01*
X218739Y97702D01*
X218711Y97720D01*
X218674Y97739D01*
X218572Y97794D01*
X218443Y97877D01*
X218295Y97988D01*
X218147Y98118D01*
X217990Y98284D01*
X217851Y98488D01*
Y98497D01*
X217833Y98515D01*
X217824Y98543D01*
X217796Y98589D01*
X217768Y98645D01*
X217740Y98719D01*
X217712Y98793D01*
X217676Y98885D01*
X217639Y98987D01*
X217611Y99098D01*
X217583Y99218D01*
X217555Y99357D01*
X217537Y99495D01*
X217518Y99643D01*
X217500Y99976D01*
Y100059D01*
X217509Y100124D01*
Y100198D01*
X217518Y100290D01*
X217528Y100392D01*
X217537Y100494D01*
X217574Y100725D01*
X217629Y100975D01*
X217703Y101215D01*
X217805Y101446D01*
Y101455D01*
X217824Y101474D01*
X217842Y101502D01*
X217861Y101539D01*
X217934Y101640D01*
X218036Y101761D01*
X218166Y101899D01*
X218314Y102029D01*
X218498Y102158D01*
X218702Y102260D01*
X218711D01*
X218730Y102269D01*
X218766Y102278D01*
X218813Y102297D01*
X218868Y102315D01*
X218942Y102334D01*
X219025Y102361D01*
X219127Y102380D01*
X219238Y102398D01*
X219358Y102426D01*
X219488Y102445D01*
X219626Y102463D01*
X219784Y102482D01*
X219950Y102491D01*
X220126Y102500D01*
X220311D01*
X224009D01*
Y101650D01*
D02*
G37*
G36*
X217787Y96481D02*
X217870Y96472D01*
X217962Y96454D01*
X218055Y96435D01*
X218156Y96398D01*
X218166D01*
X218175Y96389D01*
X218230Y96370D01*
X218314Y96333D01*
X218424Y96278D01*
X218554Y96204D01*
X218702Y96111D01*
X218850Y96010D01*
X219007Y95880D01*
X219016D01*
X219025Y95862D01*
X219081Y95815D01*
X219164Y95732D01*
X219284Y95612D01*
X219423Y95473D01*
X219589Y95298D01*
X219774Y95085D01*
X219968Y94854D01*
X219978Y94845D01*
X220005Y94808D01*
X220052Y94752D01*
X220107Y94688D01*
X220181Y94604D01*
X220264Y94503D01*
X220357Y94401D01*
X220459Y94281D01*
X220680Y94050D01*
X220902Y93819D01*
X221013Y93708D01*
X221124Y93606D01*
X221226Y93513D01*
X221328Y93439D01*
X221337D01*
X221346Y93421D01*
X221374Y93402D01*
X221411Y93384D01*
X221513Y93319D01*
X221633Y93245D01*
X221781Y93181D01*
X221938Y93116D01*
X222113Y93079D01*
X222280Y93060D01*
X222289D01*
X222298D01*
X222354Y93070D01*
X222446Y93079D01*
X222548Y93107D01*
X222677Y93144D01*
X222807Y93208D01*
X222936Y93292D01*
X223066Y93402D01*
X223084Y93421D01*
X223121Y93467D01*
X223167Y93532D01*
X223232Y93634D01*
X223288Y93763D01*
X223343Y93911D01*
X223380Y94087D01*
X223389Y94281D01*
Y94336D01*
X223380Y94373D01*
X223371Y94484D01*
X223343Y94614D01*
X223306Y94752D01*
X223241Y94909D01*
X223158Y95057D01*
X223047Y95196D01*
X223029Y95215D01*
X222983Y95252D01*
X222909Y95307D01*
X222798Y95363D01*
X222668Y95427D01*
X222502Y95483D01*
X222317Y95520D01*
X222104Y95538D01*
X222187Y96342D01*
X222197D01*
X222224Y96333D01*
X222271D01*
X222335Y96324D01*
X222409Y96306D01*
X222493Y96287D01*
X222594Y96259D01*
X222696Y96232D01*
X222918Y96158D01*
X223140Y96047D01*
X223251Y95982D01*
X223362Y95899D01*
X223463Y95815D01*
X223556Y95723D01*
X223565Y95714D01*
X223574Y95695D01*
X223602Y95668D01*
X223630Y95621D01*
X223667Y95566D01*
X223704Y95501D01*
X223750Y95427D01*
X223796Y95335D01*
X223842Y95233D01*
X223889Y95122D01*
X223926Y95002D01*
X223963Y94873D01*
X223990Y94734D01*
X224018Y94586D01*
X224027Y94429D01*
X224037Y94262D01*
Y94170D01*
X224027Y94105D01*
X224018Y94031D01*
X224009Y93939D01*
X223990Y93837D01*
X223972Y93735D01*
X223907Y93495D01*
X223815Y93254D01*
X223759Y93134D01*
X223694Y93014D01*
X223611Y92903D01*
X223519Y92802D01*
X223510Y92792D01*
X223500Y92774D01*
X223463Y92755D01*
X223426Y92718D01*
X223380Y92672D01*
X223315Y92626D01*
X223251Y92580D01*
X223167Y92524D01*
X222992Y92432D01*
X222770Y92339D01*
X222659Y92302D01*
X222530Y92284D01*
X222400Y92265D01*
X222261Y92256D01*
X222243D01*
X222197D01*
X222123Y92265D01*
X222021Y92275D01*
X221910Y92293D01*
X221781Y92330D01*
X221642Y92367D01*
X221503Y92422D01*
X221485Y92432D01*
X221439Y92450D01*
X221365Y92487D01*
X221263Y92543D01*
X221152Y92617D01*
X221013Y92709D01*
X220875Y92820D01*
X220717Y92949D01*
X220699Y92968D01*
X220643Y93014D01*
X220597Y93060D01*
X220551Y93107D01*
X220495Y93162D01*
X220422Y93236D01*
X220347Y93310D01*
X220264Y93402D01*
X220172Y93495D01*
X220070Y93606D01*
X219968Y93726D01*
X219848Y93855D01*
X219728Y94003D01*
X219599Y94151D01*
X219589Y94161D01*
X219571Y94179D01*
X219543Y94216D01*
X219506Y94262D01*
X219451Y94318D01*
X219395Y94382D01*
X219275Y94530D01*
X219136Y94688D01*
X218998Y94836D01*
X218878Y94965D01*
X218831Y95020D01*
X218785Y95067D01*
X218776Y95076D01*
X218748Y95104D01*
X218711Y95141D01*
X218656Y95187D01*
X218591Y95233D01*
X218526Y95288D01*
X218369Y95400D01*
Y92247D01*
X217611D01*
Y96490D01*
X217620D01*
X217657D01*
X217712D01*
X217787Y96481D01*
D02*
G37*
G36*
X529214Y106758D02*
X524212D01*
X524221Y106749D01*
X524258Y106703D01*
X524314Y106648D01*
X524379Y106555D01*
X524462Y106453D01*
X524554Y106324D01*
X524656Y106176D01*
X524758Y106010D01*
Y106000D01*
X524767Y105991D01*
X524804Y105936D01*
X524850Y105843D01*
X524906Y105732D01*
X524970Y105603D01*
X525035Y105464D01*
X525100Y105325D01*
X525155Y105187D01*
X524397D01*
Y105196D01*
X524379Y105214D01*
X524370Y105251D01*
X524342Y105298D01*
X524314Y105353D01*
X524277Y105418D01*
X524184Y105575D01*
X524083Y105760D01*
X523953Y105945D01*
X523806Y106139D01*
X523648Y106333D01*
X523639Y106342D01*
X523630Y106352D01*
X523602Y106379D01*
X523574Y106416D01*
X523482Y106500D01*
X523371Y106610D01*
X523242Y106721D01*
X523094Y106842D01*
X522946Y106943D01*
X522789Y107036D01*
Y107544D01*
X529214D01*
Y106758D01*
D02*
G37*
G36*
X527383Y103513D02*
X527458D01*
X527633Y103495D01*
X527837Y103476D01*
X528049Y103439D01*
X528243Y103384D01*
X528428Y103319D01*
X528438D01*
X528447Y103310D01*
X528502Y103282D01*
X528576Y103236D01*
X528678Y103171D01*
X528780Y103079D01*
X528891Y102977D01*
X529002Y102847D01*
X529094Y102700D01*
X529103Y102681D01*
X529131Y102626D01*
X529168Y102542D01*
X529205Y102422D01*
X529251Y102274D01*
X529288Y102108D01*
X529316Y101923D01*
X529325Y101720D01*
Y101636D01*
X529316Y101581D01*
X529307Y101507D01*
X529297Y101433D01*
X529260Y101239D01*
X529205Y101035D01*
X529122Y100823D01*
X529066Y100712D01*
X529002Y100610D01*
X528927Y100518D01*
X528844Y100425D01*
X528835Y100416D01*
X528826Y100407D01*
X528789Y100388D01*
X528752Y100360D01*
X528706Y100323D01*
X528641Y100287D01*
X528567Y100250D01*
X528484Y100203D01*
X528391Y100166D01*
X528280Y100129D01*
X528169Y100092D01*
X528040Y100055D01*
X527901Y100037D01*
X527744Y100009D01*
X527587Y100000D01*
X527411D01*
X527300Y100767D01*
X527310D01*
X527328D01*
X527365D01*
X527421Y100777D01*
X527476Y100786D01*
X527541D01*
X527698Y100814D01*
X527864Y100841D01*
X528031Y100897D01*
X528179Y100952D01*
X528243Y100989D01*
X528299Y101035D01*
X528308Y101045D01*
X528336Y101082D01*
X528382Y101137D01*
X528428Y101211D01*
X528484Y101313D01*
X528521Y101424D01*
X528558Y101562D01*
X528567Y101710D01*
Y101766D01*
X528558Y101821D01*
X528549Y101904D01*
X528530Y101988D01*
X528512Y102080D01*
X528475Y102173D01*
X528428Y102265D01*
X528419Y102274D01*
X528400Y102302D01*
X528364Y102339D01*
X528327Y102395D01*
X528262Y102441D01*
X528197Y102496D01*
X528123Y102542D01*
X528031Y102579D01*
X528022D01*
X527985Y102598D01*
X527920Y102607D01*
X527837Y102626D01*
X527726Y102644D01*
X527587Y102653D01*
X527421Y102672D01*
X527226D01*
X522816D01*
Y103523D01*
X527180D01*
X527189D01*
X527217D01*
X527254D01*
X527310D01*
X527383Y103513D01*
D02*
G37*
G36*
X111525Y180000D02*
X110740D01*
Y185002D01*
X110730Y184993D01*
X110684Y184956D01*
X110629Y184900D01*
X110536Y184835D01*
X110435Y184752D01*
X110305Y184660D01*
X110157Y184558D01*
X109991Y184456D01*
X109981D01*
X109972Y184447D01*
X109917Y184410D01*
X109824Y184364D01*
X109713Y184308D01*
X109584Y184244D01*
X109445Y184179D01*
X109306Y184114D01*
X109168Y184059D01*
Y184817D01*
X109177D01*
X109196Y184835D01*
X109233Y184845D01*
X109279Y184872D01*
X109334Y184900D01*
X109399Y184937D01*
X109556Y185030D01*
X109741Y185131D01*
X109926Y185261D01*
X110120Y185408D01*
X110314Y185566D01*
X110323Y185575D01*
X110333Y185584D01*
X110360Y185612D01*
X110398Y185640D01*
X110481Y185732D01*
X110592Y185843D01*
X110703Y185972D01*
X110823Y186120D01*
X110925Y186268D01*
X111017Y186426D01*
X111525D01*
Y180000D01*
D02*
G37*
G36*
X105470Y186389D02*
X105544D01*
X105710Y186370D01*
X105895Y186352D01*
X106089Y186315D01*
X106283Y186268D01*
X106459Y186204D01*
X106468D01*
X106477Y186194D01*
X106533Y186167D01*
X106616Y186120D01*
X106708Y186056D01*
X106819Y185972D01*
X106940Y185871D01*
X107051Y185741D01*
X107152Y185603D01*
X107162Y185584D01*
X107189Y185529D01*
X107235Y185455D01*
X107282Y185344D01*
X107328Y185214D01*
X107374Y185076D01*
X107402Y184918D01*
X107411Y184761D01*
Y184743D01*
Y184697D01*
X107402Y184613D01*
X107383Y184512D01*
X107356Y184391D01*
X107310Y184262D01*
X107254Y184133D01*
X107180Y183994D01*
X107171Y183976D01*
X107143Y183939D01*
X107088Y183864D01*
X107014Y183791D01*
X106921Y183698D01*
X106810Y183596D01*
X106671Y183504D01*
X106514Y183412D01*
X106524D01*
X106542Y183402D01*
X106570Y183393D01*
X106607Y183375D01*
X106718Y183337D01*
X106847Y183273D01*
X106986Y183190D01*
X107143Y183088D01*
X107282Y182968D01*
X107411Y182820D01*
X107420Y182801D01*
X107457Y182746D01*
X107513Y182663D01*
X107568Y182552D01*
X107624Y182404D01*
X107679Y182246D01*
X107716Y182062D01*
X107725Y181858D01*
Y181849D01*
Y181840D01*
Y181784D01*
X107716Y181692D01*
X107698Y181581D01*
X107679Y181451D01*
X107642Y181313D01*
X107596Y181165D01*
X107531Y181017D01*
X107522Y180998D01*
X107494Y180952D01*
X107457Y180887D01*
X107402Y180795D01*
X107328Y180702D01*
X107254Y180601D01*
X107162Y180499D01*
X107060Y180416D01*
X107051Y180407D01*
X107014Y180379D01*
X106949Y180342D01*
X106866Y180305D01*
X106764Y180250D01*
X106644Y180194D01*
X106514Y180148D01*
X106357Y180102D01*
X106339D01*
X106283Y180083D01*
X106191Y180074D01*
X106071Y180055D01*
X105923Y180037D01*
X105747Y180018D01*
X105553Y180009D01*
X105331Y180000D01*
X102890D01*
Y186398D01*
X105405D01*
X105470Y186389D01*
D02*
G37*
G36*
X101827Y185640D02*
X98350D01*
Y183661D01*
X101355D01*
Y182903D01*
X98350D01*
Y180000D01*
X97500D01*
Y186398D01*
X101827D01*
Y185640D01*
D02*
G37*
G36*
X60562Y180000D02*
X59776D01*
Y185002D01*
X59767Y184993D01*
X59721Y184956D01*
X59665Y184900D01*
X59573Y184835D01*
X59471Y184752D01*
X59342Y184660D01*
X59194Y184558D01*
X59027Y184456D01*
X59018D01*
X59009Y184447D01*
X58953Y184410D01*
X58861Y184364D01*
X58750Y184308D01*
X58621Y184244D01*
X58482Y184179D01*
X58343Y184114D01*
X58204Y184059D01*
Y184817D01*
X58214D01*
X58232Y184835D01*
X58269Y184845D01*
X58315Y184872D01*
X58371Y184900D01*
X58436Y184937D01*
X58593Y185030D01*
X58778Y185131D01*
X58962Y185261D01*
X59157Y185408D01*
X59351Y185566D01*
X59360Y185575D01*
X59369Y185584D01*
X59397Y185612D01*
X59434Y185640D01*
X59517Y185732D01*
X59628Y185843D01*
X59739Y185972D01*
X59859Y186120D01*
X59961Y186268D01*
X60054Y186426D01*
X60562D01*
Y180000D01*
D02*
G37*
G36*
X56827Y185640D02*
X53351D01*
Y183661D01*
X56355D01*
Y182903D01*
X53351D01*
Y180000D01*
X52500D01*
Y186398D01*
X56827D01*
Y185640D01*
D02*
G37*
G36*
X35275Y99233D02*
X35265D01*
X35247D01*
X35210D01*
X35154Y99223D01*
X35099Y99214D01*
X35034D01*
X34877Y99186D01*
X34711Y99159D01*
X34544Y99103D01*
X34396Y99048D01*
X34332Y99011D01*
X34276Y98965D01*
X34267Y98955D01*
X34239Y98918D01*
X34193Y98863D01*
X34147Y98789D01*
X34091Y98687D01*
X34054Y98576D01*
X34017Y98438D01*
X34008Y98290D01*
Y98234D01*
X34017Y98179D01*
X34027Y98096D01*
X34045Y98012D01*
X34063Y97920D01*
X34100Y97827D01*
X34147Y97735D01*
X34156Y97726D01*
X34174Y97698D01*
X34211Y97661D01*
X34248Y97605D01*
X34313Y97559D01*
X34378Y97504D01*
X34452Y97458D01*
X34544Y97421D01*
X34553D01*
X34590Y97402D01*
X34655Y97393D01*
X34738Y97374D01*
X34849Y97356D01*
X34988Y97347D01*
X35154Y97328D01*
X35349D01*
X39759D01*
Y96477D01*
X35395D01*
X35386D01*
X35358D01*
X35321D01*
X35265D01*
X35191Y96487D01*
X35117D01*
X34942Y96505D01*
X34738Y96524D01*
X34526Y96561D01*
X34332Y96616D01*
X34147Y96681D01*
X34137D01*
X34128Y96690D01*
X34073Y96718D01*
X33999Y96764D01*
X33897Y96829D01*
X33795Y96921D01*
X33684Y97023D01*
X33573Y97153D01*
X33481Y97300D01*
X33472Y97319D01*
X33444Y97374D01*
X33407Y97458D01*
X33370Y97578D01*
X33324Y97726D01*
X33287Y97892D01*
X33259Y98077D01*
X33250Y98280D01*
Y98364D01*
X33259Y98419D01*
X33268Y98493D01*
X33278Y98567D01*
X33315Y98761D01*
X33370Y98965D01*
X33453Y99177D01*
X33509Y99288D01*
X33573Y99390D01*
X33647Y99482D01*
X33731Y99575D01*
X33740Y99584D01*
X33749Y99593D01*
X33786Y99612D01*
X33823Y99640D01*
X33869Y99677D01*
X33934Y99713D01*
X34008Y99750D01*
X34091Y99797D01*
X34184Y99834D01*
X34295Y99871D01*
X34406Y99908D01*
X34535Y99945D01*
X34674Y99963D01*
X34831Y99991D01*
X34988Y100000D01*
X35164D01*
X35275Y99233D01*
D02*
G37*
G36*
X35154Y94619D02*
X35145D01*
X35127Y94610D01*
X35090Y94601D01*
X35043Y94591D01*
X34988Y94582D01*
X34923Y94564D01*
X34785Y94517D01*
X34618Y94453D01*
X34461Y94369D01*
X34313Y94277D01*
X34184Y94166D01*
X34174Y94148D01*
X34137Y94111D01*
X34091Y94037D01*
X34045Y93944D01*
X33990Y93833D01*
X33943Y93695D01*
X33906Y93537D01*
X33897Y93371D01*
Y93315D01*
X33906Y93279D01*
X33916Y93177D01*
X33943Y93047D01*
X33990Y92900D01*
X34054Y92742D01*
X34147Y92585D01*
X34276Y92437D01*
X34295Y92419D01*
X34350Y92373D01*
X34433Y92317D01*
X34544Y92243D01*
X34683Y92169D01*
X34840Y92114D01*
X35025Y92067D01*
X35228Y92049D01*
X35238D01*
X35256D01*
X35284D01*
X35321Y92058D01*
X35423Y92067D01*
X35543Y92095D01*
X35691Y92132D01*
X35839Y92197D01*
X35986Y92289D01*
X36125Y92409D01*
X36144Y92428D01*
X36181Y92474D01*
X36236Y92548D01*
X36301Y92650D01*
X36366Y92779D01*
X36421Y92936D01*
X36458Y93112D01*
X36477Y93306D01*
Y93390D01*
X36467Y93454D01*
X36458Y93537D01*
X36440Y93630D01*
X36421Y93741D01*
X36393Y93861D01*
X37087Y93769D01*
Y93722D01*
X37078Y93685D01*
Y93565D01*
X37096Y93463D01*
X37115Y93343D01*
X37142Y93205D01*
X37188Y93047D01*
X37253Y92900D01*
X37336Y92742D01*
Y92733D01*
X37346Y92724D01*
X37383Y92678D01*
X37447Y92613D01*
X37531Y92539D01*
X37651Y92465D01*
X37789Y92400D01*
X37947Y92354D01*
X38039Y92336D01*
X38141D01*
X38150D01*
X38159D01*
X38215D01*
X38289Y92354D01*
X38390Y92373D01*
X38501Y92409D01*
X38621Y92456D01*
X38742Y92530D01*
X38853Y92631D01*
X38862Y92641D01*
X38899Y92687D01*
X38945Y92752D01*
X39001Y92835D01*
X39047Y92946D01*
X39093Y93075D01*
X39130Y93223D01*
X39139Y93390D01*
Y93463D01*
X39121Y93547D01*
X39102Y93658D01*
X39065Y93778D01*
X39019Y93898D01*
X38945Y94027D01*
X38853Y94148D01*
X38843Y94157D01*
X38797Y94194D01*
X38733Y94249D01*
X38640Y94314D01*
X38520Y94379D01*
X38372Y94444D01*
X38196Y94499D01*
X37993Y94536D01*
X38131Y95322D01*
X38141D01*
X38168Y95313D01*
X38205Y95303D01*
X38261Y95294D01*
X38326Y95276D01*
X38400Y95248D01*
X38575Y95192D01*
X38779Y95100D01*
X38982Y94989D01*
X39176Y94850D01*
X39352Y94675D01*
X39361Y94665D01*
X39370Y94647D01*
X39389Y94619D01*
X39417Y94582D01*
X39454Y94536D01*
X39491Y94471D01*
X39528Y94406D01*
X39574Y94323D01*
X39648Y94138D01*
X39722Y93926D01*
X39768Y93676D01*
X39787Y93547D01*
Y93315D01*
X39777Y93214D01*
X39759Y93094D01*
X39731Y92946D01*
X39685Y92779D01*
X39629Y92613D01*
X39555Y92446D01*
Y92437D01*
X39546Y92428D01*
X39518Y92373D01*
X39463Y92289D01*
X39398Y92197D01*
X39306Y92086D01*
X39204Y91975D01*
X39084Y91864D01*
X38945Y91771D01*
X38927Y91762D01*
X38880Y91735D01*
X38797Y91698D01*
X38695Y91651D01*
X38575Y91605D01*
X38437Y91568D01*
X38280Y91540D01*
X38122Y91531D01*
X38104D01*
X38048D01*
X37974Y91540D01*
X37873Y91559D01*
X37752Y91587D01*
X37623Y91633D01*
X37494Y91688D01*
X37364Y91762D01*
X37346Y91771D01*
X37309Y91799D01*
X37244Y91855D01*
X37170Y91929D01*
X37087Y92021D01*
X36994Y92132D01*
X36911Y92261D01*
X36828Y92419D01*
Y92409D01*
X36819Y92391D01*
X36809Y92363D01*
X36800Y92326D01*
X36763Y92225D01*
X36708Y92095D01*
X36634Y91947D01*
X36541Y91799D01*
X36421Y91661D01*
X36282Y91531D01*
X36264Y91522D01*
X36208Y91485D01*
X36116Y91429D01*
X35996Y91374D01*
X35848Y91319D01*
X35672Y91263D01*
X35469Y91226D01*
X35247Y91217D01*
X35238D01*
X35210D01*
X35164D01*
X35108Y91226D01*
X35034Y91235D01*
X34951Y91254D01*
X34859Y91272D01*
X34757Y91291D01*
X34535Y91365D01*
X34415Y91420D01*
X34304Y91476D01*
X34184Y91550D01*
X34063Y91633D01*
X33943Y91725D01*
X33832Y91836D01*
X33823Y91846D01*
X33805Y91864D01*
X33777Y91901D01*
X33740Y91947D01*
X33694Y92003D01*
X33647Y92077D01*
X33592Y92160D01*
X33546Y92261D01*
X33490Y92363D01*
X33435Y92483D01*
X33389Y92604D01*
X33342Y92742D01*
X33305Y92890D01*
X33278Y93047D01*
X33259Y93205D01*
X33250Y93380D01*
Y93463D01*
X33259Y93519D01*
X33268Y93593D01*
X33278Y93676D01*
X33296Y93769D01*
X33315Y93870D01*
X33370Y94092D01*
X33463Y94323D01*
X33518Y94444D01*
X33583Y94554D01*
X33666Y94665D01*
X33749Y94776D01*
X33758Y94786D01*
X33777Y94804D01*
X33805Y94832D01*
X33842Y94860D01*
X33888Y94906D01*
X33953Y94952D01*
X34017Y95007D01*
X34100Y95063D01*
X34193Y95118D01*
X34285Y95174D01*
X34507Y95276D01*
X34766Y95359D01*
X34905Y95387D01*
X35053Y95405D01*
X35154Y94619D01*
D02*
G37*
%LPC*%
G36*
X333868Y176649D02*
X328987D01*
Y175133D01*
X328996Y175068D01*
X329005Y174930D01*
X329014Y174772D01*
X329033Y174606D01*
X329061Y174440D01*
X329098Y174301D01*
X329107Y174282D01*
X329116Y174236D01*
X329144Y174172D01*
X329181Y174088D01*
X329236Y173996D01*
X329292Y173903D01*
X329356Y173811D01*
X329430Y173718D01*
X329449Y173709D01*
X329486Y173672D01*
X329551Y173617D01*
X329643Y173552D01*
X329763Y173478D01*
X329902Y173395D01*
X330059Y173321D01*
X330235Y173256D01*
X330244D01*
X330262Y173247D01*
X330290Y173238D01*
X330327Y173228D01*
X330373Y173219D01*
X330438Y173201D01*
X330503Y173182D01*
X330577Y173164D01*
X330762Y173136D01*
X330974Y173108D01*
X331215Y173090D01*
X331474Y173081D01*
X331483D01*
X331520D01*
X331566D01*
X331640Y173090D01*
X331723D01*
X331816Y173099D01*
X331927Y173108D01*
X332038Y173118D01*
X332287Y173164D01*
X332546Y173219D01*
X332787Y173302D01*
X332907Y173358D01*
X333008Y173413D01*
X333018D01*
X333036Y173432D01*
X333064Y173450D01*
X333101Y173469D01*
X333193Y173543D01*
X333304Y173635D01*
X333424Y173755D01*
X333545Y173894D01*
X333646Y174051D01*
X333730Y174218D01*
X333739Y174236D01*
X333748Y174282D01*
X333776Y174366D01*
X333804Y174486D01*
X333822Y174634D01*
X333850Y174819D01*
X333859Y174930D01*
Y175050D01*
X333868Y175170D01*
Y176649D01*
D02*
G37*
G36*
X211257Y176649D02*
X206376D01*
Y175133D01*
X206385Y175068D01*
X206394Y174930D01*
X206403Y174772D01*
X206422Y174606D01*
X206450Y174440D01*
X206487Y174301D01*
X206496Y174282D01*
X206505Y174236D01*
X206533Y174172D01*
X206570Y174088D01*
X206625Y173996D01*
X206681Y173903D01*
X206745Y173811D01*
X206819Y173718D01*
X206838Y173709D01*
X206875Y173672D01*
X206940Y173617D01*
X207032Y173552D01*
X207152Y173478D01*
X207291Y173395D01*
X207448Y173321D01*
X207624Y173256D01*
X207633D01*
X207652Y173247D01*
X207679Y173238D01*
X207716Y173228D01*
X207763Y173219D01*
X207827Y173201D01*
X207892Y173182D01*
X207966Y173164D01*
X208151Y173136D01*
X208363Y173108D01*
X208604Y173090D01*
X208863Y173081D01*
X208872D01*
X208909D01*
X208955D01*
X209029Y173090D01*
X209112D01*
X209205Y173099D01*
X209316Y173108D01*
X209427Y173118D01*
X209676Y173164D01*
X209935Y173219D01*
X210176Y173302D01*
X210296Y173358D01*
X210397Y173413D01*
X210407D01*
X210425Y173432D01*
X210453Y173450D01*
X210490Y173469D01*
X210582Y173543D01*
X210693Y173635D01*
X210814Y173755D01*
X210934Y173894D01*
X211035Y174051D01*
X211119Y174218D01*
X211128Y174236D01*
X211137Y174282D01*
X211165Y174366D01*
X211193Y174486D01*
X211211Y174634D01*
X211239Y174819D01*
X211248Y174930D01*
Y175050D01*
X211257Y175170D01*
Y176649D01*
D02*
G37*
G36*
X191257Y176649D02*
X186376D01*
Y175133D01*
X186385Y175068D01*
X186394Y174930D01*
X186403Y174772D01*
X186422Y174606D01*
X186450Y174440D01*
X186487Y174301D01*
X186496Y174282D01*
X186505Y174236D01*
X186533Y174172D01*
X186570Y174088D01*
X186625Y173996D01*
X186681Y173903D01*
X186745Y173811D01*
X186819Y173718D01*
X186838Y173709D01*
X186875Y173672D01*
X186940Y173617D01*
X187032Y173552D01*
X187152Y173478D01*
X187291Y173395D01*
X187448Y173321D01*
X187624Y173256D01*
X187633D01*
X187652Y173247D01*
X187679Y173238D01*
X187716Y173228D01*
X187763Y173219D01*
X187827Y173201D01*
X187892Y173182D01*
X187966Y173164D01*
X188151Y173136D01*
X188363Y173108D01*
X188604Y173090D01*
X188863Y173081D01*
X188872D01*
X188909D01*
X188955D01*
X189029Y173090D01*
X189112D01*
X189205Y173099D01*
X189316Y173108D01*
X189427Y173118D01*
X189676Y173164D01*
X189935Y173219D01*
X190176Y173302D01*
X190296Y173358D01*
X190397Y173413D01*
X190407D01*
X190425Y173432D01*
X190453Y173450D01*
X190490Y173469D01*
X190582Y173543D01*
X190693Y173635D01*
X190814Y173755D01*
X190934Y173894D01*
X191035Y174051D01*
X191119Y174218D01*
X191128Y174236D01*
X191137Y174282D01*
X191165Y174366D01*
X191193Y174486D01*
X191211Y174634D01*
X191239Y174819D01*
X191248Y174930D01*
Y175050D01*
X191257Y175170D01*
Y176649D01*
D02*
G37*
G36*
X105257Y185640D02*
X103741D01*
Y183717D01*
X105312D01*
X105433Y183726D01*
X105562Y183735D01*
X105691Y183744D01*
X105821Y183763D01*
X105923Y183781D01*
X105941Y183791D01*
X105978Y183800D01*
X106034Y183827D01*
X106108Y183864D01*
X106181Y183902D01*
X106265Y183957D01*
X106348Y184031D01*
X106413Y184105D01*
X106422Y184114D01*
X106440Y184142D01*
X106468Y184197D01*
X106496Y184262D01*
X106524Y184336D01*
X106551Y184429D01*
X106570Y184540D01*
X106579Y184660D01*
Y184678D01*
Y184715D01*
X106570Y184771D01*
X106561Y184845D01*
X106542Y184937D01*
X106514Y185030D01*
X106477Y185122D01*
X106422Y185214D01*
X106413Y185224D01*
X106394Y185251D01*
X106357Y185298D01*
X106311Y185344D01*
X106246Y185399D01*
X106172Y185455D01*
X106080Y185510D01*
X105978Y185547D01*
X105969D01*
X105923Y185566D01*
X105858Y185575D01*
X105756Y185593D01*
X105618Y185612D01*
X105460Y185621D01*
X105257Y185640D01*
D02*
G37*
G36*
X105423Y182959D02*
X103741D01*
Y180758D01*
X105562D01*
X105756Y180767D01*
X105839Y180777D01*
X105913Y180786D01*
X105923D01*
X105960Y180795D01*
X106015Y180804D01*
X106080Y180823D01*
X106237Y180878D01*
X106394Y180952D01*
X106403Y180961D01*
X106431Y180980D01*
X106468Y181008D01*
X106514Y181045D01*
X106561Y181100D01*
X106625Y181156D01*
X106671Y181229D01*
X106727Y181313D01*
X106736Y181322D01*
X106746Y181350D01*
X106764Y181405D01*
X106792Y181470D01*
X106819Y181544D01*
X106838Y181636D01*
X106847Y181747D01*
X106856Y181858D01*
Y181877D01*
Y181914D01*
X106847Y181988D01*
X106829Y182071D01*
X106810Y182163D01*
X106773Y182265D01*
X106727Y182367D01*
X106662Y182468D01*
X106653Y182478D01*
X106625Y182515D01*
X106588Y182561D01*
X106533Y182616D01*
X106459Y182681D01*
X106366Y182746D01*
X106265Y182801D01*
X106145Y182847D01*
X106126Y182857D01*
X106089Y182866D01*
X106006Y182885D01*
X105904Y182903D01*
X105775Y182922D01*
X105618Y182940D01*
X105423Y182959D01*
D02*
G37*
%LPD*%
D13*
X323750Y190000D02*
X336250D01*
X323750Y165000D02*
Y190000D01*
Y165000D02*
X336250D01*
Y190000D01*
X213750Y165000D02*
Y190000D01*
X201250Y165000D02*
X213750D01*
X201250D02*
Y190000D01*
X213750D01*
X181250D02*
X193750D01*
X181250Y165000D02*
Y190000D01*
Y165000D02*
X193750D01*
Y190000D01*
X245000Y75000D02*
Y130000D01*
X190000Y75000D02*
X245000D01*
X190000D02*
Y130000D01*
X245000D01*
X459400Y64000D02*
Y136000D01*
X599250D01*
Y64000D02*
Y136000D01*
X459400Y64000D02*
X599250D01*
X83500Y171750D02*
Y188250D01*
Y171750D02*
X111500D01*
Y188250D01*
X83500D02*
X111500D01*
X35500Y171500D02*
Y188500D01*
Y171500D02*
X69500D01*
Y188500D01*
X35500D02*
X69500D01*
X71000Y50800D02*
Y149200D01*
X-4500Y50800D02*
X71000D01*
X-4500D02*
Y149200D01*
X71000D01*
M02*
