G04*
G04 #@! TF.GenerationSoftware,Altium Limited,Altium Designer,22.1.2 (22)*
G04*
G04 Layer_Physical_Order=3*
G04 Layer_Color=16440176*
%FSLAX44Y44*%
%MOMM*%
G71*
G04*
G04 #@! TF.SameCoordinates,873FB45C-190C-4682-B26A-08C162FF856E*
G04*
G04*
G04 #@! TF.FilePolarity,Positive*
G04*
G01*
G75*
%ADD49C,1.3970*%
%ADD57C,0.4500*%
G36*
X350000Y85000D02*
X287500D01*
Y69853D01*
X286230Y69601D01*
X286103Y69907D01*
X284907Y71103D01*
X283345Y71750D01*
X281655D01*
X280093Y71103D01*
X278897Y69907D01*
X278250Y68345D01*
Y66655D01*
X278409Y66270D01*
X277561Y65000D01*
X237500D01*
Y0D01*
X0D01*
Y200000D01*
X350000D01*
X350000Y85000D01*
D02*
G37*
%LPC*%
G36*
X270845Y189250D02*
X269155D01*
X267593Y188603D01*
X266397Y187407D01*
X265750Y185845D01*
Y184155D01*
X266397Y182593D01*
X267593Y181397D01*
X269155Y180750D01*
X270845D01*
X272407Y181397D01*
X273603Y182593D01*
X274250Y184155D01*
Y185845D01*
X273603Y187407D01*
X272407Y188603D01*
X270845Y189250D01*
D02*
G37*
G36*
X260145D02*
X258455D01*
X256893Y188603D01*
X255697Y187407D01*
X255050Y185845D01*
Y184155D01*
X255697Y182593D01*
X256893Y181397D01*
X258455Y180750D01*
X260145D01*
X261707Y181397D01*
X262903Y182593D01*
X263550Y184155D01*
Y185845D01*
X262903Y187407D01*
X261707Y188603D01*
X260145Y189250D01*
D02*
G37*
G36*
X140845D02*
X139155D01*
X137593Y188603D01*
X136397Y187407D01*
X135750Y185845D01*
Y184155D01*
X136397Y182593D01*
X137593Y181397D01*
X139155Y180750D01*
X140845D01*
X142407Y181397D01*
X143603Y182593D01*
X144250Y184155D01*
Y185845D01*
X143603Y187407D01*
X142407Y188603D01*
X140845Y189250D01*
D02*
G37*
G36*
X270845Y179250D02*
X269155D01*
X267593Y178603D01*
X266397Y177407D01*
X265750Y175845D01*
Y174155D01*
X266397Y172593D01*
X267593Y171397D01*
X269155Y170750D01*
X270845D01*
X272407Y171397D01*
X273603Y172593D01*
X274250Y174155D01*
Y175845D01*
X273603Y177407D01*
X272407Y178603D01*
X270845Y179250D01*
D02*
G37*
G36*
X260845D02*
X259155D01*
X257593Y178603D01*
X256397Y177407D01*
X255750Y175845D01*
Y174155D01*
X256397Y172593D01*
X257593Y171397D01*
X259155Y170750D01*
X260845D01*
X262407Y171397D01*
X263603Y172593D01*
X264250Y174155D01*
Y175845D01*
X263603Y177407D01*
X262407Y178603D01*
X260845Y179250D01*
D02*
G37*
G36*
X300345Y177750D02*
X298655D01*
X297093Y177103D01*
X295897Y175907D01*
X295250Y174345D01*
Y172655D01*
X295897Y171093D01*
X297093Y169897D01*
X298655Y169250D01*
X300345D01*
X301907Y169897D01*
X303103Y171093D01*
X303750Y172655D01*
Y174345D01*
X303103Y175907D01*
X301907Y177103D01*
X300345Y177750D01*
D02*
G37*
G36*
X318345Y174250D02*
X316655D01*
X315093Y173603D01*
X313897Y172407D01*
X313250Y170845D01*
Y169155D01*
X313897Y167593D01*
X315093Y166397D01*
X316655Y165750D01*
X318345D01*
X319907Y166397D01*
X321103Y167593D01*
X321750Y169155D01*
Y170845D01*
X321103Y172407D01*
X319907Y173603D01*
X318345Y174250D01*
D02*
G37*
G36*
X95845Y169250D02*
X94155D01*
X92593Y168603D01*
X91397Y167407D01*
X90750Y165845D01*
Y164155D01*
X91397Y162593D01*
X92593Y161397D01*
X94155Y160750D01*
X95845D01*
X97407Y161397D01*
X98603Y162593D01*
X99250Y164155D01*
Y165845D01*
X98603Y167407D01*
X97407Y168603D01*
X95845Y169250D01*
D02*
G37*
G36*
X215845Y161750D02*
X214155D01*
X212593Y161103D01*
X211397Y159907D01*
X210750Y158345D01*
Y156655D01*
X211397Y155093D01*
X212593Y153897D01*
X214155Y153250D01*
X215845D01*
X217407Y153897D01*
X218603Y155093D01*
X219250Y156655D01*
Y158345D01*
X218603Y159907D01*
X217407Y161103D01*
X215845Y161750D01*
D02*
G37*
G36*
X168345D02*
X166655D01*
X165093Y161103D01*
X163897Y159907D01*
X163250Y158345D01*
Y156655D01*
X163897Y155093D01*
X165093Y153897D01*
X166655Y153250D01*
X168345D01*
X169907Y153897D01*
X171103Y155093D01*
X171750Y156655D01*
Y158345D01*
X171103Y159907D01*
X169907Y161103D01*
X168345Y161750D01*
D02*
G37*
G36*
X332845Y161250D02*
X331155D01*
X329593Y160603D01*
X328397Y159407D01*
X327750Y157845D01*
Y156155D01*
X328397Y154593D01*
X329593Y153397D01*
X331155Y152750D01*
X332845D01*
X334407Y153397D01*
X335603Y154593D01*
X336250Y156155D01*
Y157845D01*
X335603Y159407D01*
X334407Y160603D01*
X332845Y161250D01*
D02*
G37*
G36*
X316845D02*
X315155D01*
X313593Y160603D01*
X312397Y159407D01*
X311750Y157845D01*
Y156155D01*
X312397Y154593D01*
X313593Y153397D01*
X315155Y152750D01*
X316845D01*
X318407Y153397D01*
X319603Y154593D01*
X320250Y156155D01*
Y157845D01*
X319603Y159407D01*
X318407Y160603D01*
X316845Y161250D01*
D02*
G37*
G36*
X279845Y151250D02*
X278155D01*
X276593Y150603D01*
X275397Y149407D01*
X274750Y147845D01*
Y146155D01*
X275397Y144593D01*
X276593Y143397D01*
X278155Y142750D01*
X279845D01*
X281407Y143397D01*
X282603Y144593D01*
X283250Y146155D01*
Y147845D01*
X282603Y149407D01*
X281407Y150603D01*
X279845Y151250D01*
D02*
G37*
G36*
X225845Y149250D02*
X224155D01*
X222593Y148603D01*
X221397Y147407D01*
X220750Y145845D01*
Y144155D01*
X221397Y142593D01*
X222593Y141397D01*
X224155Y140750D01*
X225845D01*
X227407Y141397D01*
X228603Y142593D01*
X229250Y144155D01*
Y145845D01*
X228603Y147407D01*
X227407Y148603D01*
X225845Y149250D01*
D02*
G37*
G36*
X75845D02*
X74155D01*
X72593Y148603D01*
X71397Y147407D01*
X70750Y145845D01*
Y144155D01*
X71397Y142593D01*
X72593Y141397D01*
X74155Y140750D01*
X75845D01*
X77407Y141397D01*
X78603Y142593D01*
X79250Y144155D01*
Y145845D01*
X78603Y147407D01*
X77407Y148603D01*
X75845Y149250D01*
D02*
G37*
G36*
X62500Y150260D02*
X54500D01*
X52673Y150020D01*
X50970Y149314D01*
X49507Y148192D01*
X48386Y146730D01*
X47680Y145027D01*
X47440Y143200D01*
X47680Y141373D01*
X48386Y139670D01*
X49507Y138208D01*
X50970Y137086D01*
X52673Y136380D01*
X54500Y136140D01*
X62500D01*
X64327Y136380D01*
X66030Y137086D01*
X67492Y138208D01*
X68614Y139670D01*
X69320Y141373D01*
X69560Y143200D01*
X69320Y145027D01*
X68614Y146730D01*
X67492Y148192D01*
X66030Y149314D01*
X64327Y150020D01*
X62500Y150260D01*
D02*
G37*
G36*
X24500D02*
X12500D01*
X10673Y150020D01*
X8970Y149314D01*
X7508Y148192D01*
X6385Y146730D01*
X5680Y145027D01*
X5440Y143200D01*
X5680Y141373D01*
X6385Y139670D01*
X7508Y138208D01*
X8970Y137086D01*
X10673Y136380D01*
X12500Y136140D01*
X24500D01*
X26327Y136380D01*
X28030Y137086D01*
X29492Y138208D01*
X30615Y139670D01*
X31320Y141373D01*
X31560Y143200D01*
X31320Y145027D01*
X30615Y146730D01*
X29492Y148192D01*
X28030Y149314D01*
X26327Y150020D01*
X24500Y150260D01*
D02*
G37*
G36*
X120845Y136750D02*
X119155D01*
X117593Y136103D01*
X117080Y135590D01*
X116250Y135010D01*
X115420Y135590D01*
X114907Y136103D01*
X113345Y136750D01*
X111655D01*
X110093Y136103D01*
X109580Y135590D01*
X108750Y135010D01*
X107920Y135590D01*
X107407Y136103D01*
X105845Y136750D01*
X104155D01*
X102593Y136103D01*
X101397Y134907D01*
X100750Y133345D01*
Y131655D01*
X101397Y130093D01*
X102593Y128897D01*
X104155Y128250D01*
X105845D01*
X107407Y128897D01*
X107920Y129410D01*
X108750Y129990D01*
X109580Y129410D01*
X110093Y128897D01*
X111655Y128250D01*
X113345D01*
X114907Y128897D01*
X115420Y129410D01*
X116250Y129990D01*
X117080Y129410D01*
X117593Y128897D01*
X119155Y128250D01*
X120845D01*
X122407Y128897D01*
X123603Y130093D01*
X124250Y131655D01*
Y133345D01*
X123603Y134907D01*
X122407Y136103D01*
X120845Y136750D01*
D02*
G37*
G36*
X95845D02*
X94155D01*
X92593Y136103D01*
X91397Y134907D01*
X90750Y133345D01*
Y131655D01*
X91397Y130093D01*
X92593Y128897D01*
X94155Y128250D01*
X95845D01*
X97407Y128897D01*
X98603Y130093D01*
X99250Y131655D01*
Y133345D01*
X98603Y134907D01*
X97407Y136103D01*
X95845Y136750D01*
D02*
G37*
G36*
X120845Y126750D02*
X119155D01*
X117593Y126103D01*
X117080Y125590D01*
X116250Y125010D01*
X115420Y125590D01*
X114907Y126103D01*
X113345Y126750D01*
X111655D01*
X110093Y126103D01*
X109580Y125590D01*
X108750Y125010D01*
X107920Y125590D01*
X107407Y126103D01*
X105845Y126750D01*
X104155D01*
X102593Y126103D01*
X101397Y124907D01*
X100750Y123345D01*
Y121655D01*
X101397Y120093D01*
X102593Y118897D01*
X104155Y118250D01*
X105845D01*
X107407Y118897D01*
X107920Y119410D01*
X108750Y119990D01*
X109580Y119410D01*
X110093Y118897D01*
X111655Y118250D01*
X113345D01*
X114907Y118897D01*
X115420Y119410D01*
X116250Y119990D01*
X117080Y119410D01*
X117593Y118897D01*
X119155Y118250D01*
X120845D01*
X122407Y118897D01*
X123603Y120093D01*
X124250Y121655D01*
Y123345D01*
X123603Y124907D01*
X122407Y126103D01*
X120845Y126750D01*
D02*
G37*
G36*
X138345Y131750D02*
X136655D01*
X135093Y131103D01*
X133897Y129907D01*
X133250Y128345D01*
Y126655D01*
X133897Y125093D01*
X135093Y123897D01*
X136655Y123250D01*
X138345D01*
X139907Y123897D01*
X141103Y125093D01*
X141750Y126655D01*
Y128345D01*
X141103Y129907D01*
X139907Y131103D01*
X138345Y131750D01*
D02*
G37*
G36*
X270845Y129250D02*
X269155D01*
X267593Y128603D01*
X266397Y127407D01*
X265750Y125845D01*
Y124155D01*
X266397Y122593D01*
X267593Y121397D01*
X269155Y120750D01*
X270845D01*
X272407Y121397D01*
X273603Y122593D01*
X274250Y124155D01*
Y125845D01*
X273603Y127407D01*
X272407Y128603D01*
X270845Y129250D01*
D02*
G37*
G36*
X250845Y126750D02*
X249155D01*
X247593Y126103D01*
X246397Y124907D01*
X245750Y123345D01*
Y121655D01*
X246397Y120093D01*
X247593Y118897D01*
X249155Y118250D01*
X250845D01*
X252407Y118897D01*
X253603Y120093D01*
X254250Y121655D01*
Y123345D01*
X253603Y124907D01*
X252407Y126103D01*
X250845Y126750D01*
D02*
G37*
G36*
X185845D02*
X184155D01*
X182593Y126103D01*
X181397Y124907D01*
X180750Y123345D01*
Y121655D01*
X181397Y120093D01*
X182593Y118897D01*
X184155Y118250D01*
X185845D01*
X187407Y118897D01*
X188603Y120093D01*
X189250Y121655D01*
Y123345D01*
X188603Y124907D01*
X187407Y126103D01*
X185845Y126750D01*
D02*
G37*
G36*
X81845Y123250D02*
X80155D01*
X78593Y122603D01*
X77397Y121407D01*
X76750Y119845D01*
Y118155D01*
X77397Y116593D01*
X78593Y115397D01*
X80155Y114750D01*
X81845D01*
X83407Y115397D01*
X84603Y116593D01*
X85250Y118155D01*
Y119845D01*
X84603Y121407D01*
X83407Y122603D01*
X81845Y123250D01*
D02*
G37*
G36*
X330845Y112250D02*
X329155D01*
X327593Y111603D01*
X326397Y110407D01*
X325750Y108845D01*
Y107155D01*
X326397Y105593D01*
X327593Y104397D01*
X329155Y103750D01*
X330845D01*
X332407Y104397D01*
X333603Y105593D01*
X334250Y107155D01*
Y108845D01*
X333603Y110407D01*
X332407Y111603D01*
X330845Y112250D01*
D02*
G37*
G36*
X225845Y111750D02*
X224155D01*
X222593Y111103D01*
X221397Y109907D01*
X220750Y108345D01*
Y106655D01*
X221397Y105093D01*
X222593Y103897D01*
X224155Y103250D01*
X225845D01*
X227407Y103897D01*
X228603Y105093D01*
X229250Y106655D01*
Y108345D01*
X228603Y109907D01*
X227407Y111103D01*
X225845Y111750D01*
D02*
G37*
G36*
X210845D02*
X209155D01*
X207593Y111103D01*
X206397Y109907D01*
X205750Y108345D01*
Y106655D01*
X206397Y105093D01*
X207593Y103897D01*
X209155Y103250D01*
X210845D01*
X212407Y103897D01*
X213603Y105093D01*
X214250Y106655D01*
Y108345D01*
X213603Y109907D01*
X212407Y111103D01*
X210845Y111750D01*
D02*
G37*
G36*
X296395Y110000D02*
X294605D01*
X292951Y109315D01*
X291685Y108049D01*
X291000Y106395D01*
Y104605D01*
X291685Y102951D01*
X292951Y101685D01*
X294605Y101000D01*
X296395D01*
X298049Y101685D01*
X299315Y102951D01*
X300000Y104605D01*
Y106395D01*
X299315Y108049D01*
X298049Y109315D01*
X296395Y110000D01*
D02*
G37*
G36*
X285395D02*
X283605D01*
X281951Y109315D01*
X280685Y108049D01*
X280000Y106395D01*
Y104605D01*
X280685Y102951D01*
X281951Y101685D01*
X283605Y101000D01*
X285395D01*
X287049Y101685D01*
X288315Y102951D01*
X289000Y104605D01*
Y106395D01*
X288315Y108049D01*
X287049Y109315D01*
X285395Y110000D01*
D02*
G37*
G36*
X260845Y102310D02*
X259155D01*
X257593Y101663D01*
X256397Y100467D01*
X255750Y98905D01*
Y97215D01*
X256397Y95653D01*
X257593Y94457D01*
X259155Y93810D01*
X260845D01*
X262407Y94457D01*
X263603Y95653D01*
X264250Y97215D01*
Y98905D01*
X263603Y100467D01*
X262407Y101663D01*
X260845Y102310D01*
D02*
G37*
G36*
X296395Y99000D02*
X294605D01*
X292951Y98315D01*
X291685Y97049D01*
X291000Y95395D01*
Y93605D01*
X291685Y91951D01*
X292951Y90685D01*
X294605Y90000D01*
X296395D01*
X298049Y90685D01*
X299315Y91951D01*
X300000Y93605D01*
Y95395D01*
X299315Y97049D01*
X298049Y98315D01*
X296395Y99000D01*
D02*
G37*
G36*
X285395D02*
X283605D01*
X281951Y98315D01*
X280685Y97049D01*
X280000Y95395D01*
Y93605D01*
X280685Y91951D01*
X281951Y90685D01*
X283605Y90000D01*
X285395D01*
X287049Y90685D01*
X288315Y91951D01*
X289000Y93605D01*
Y95395D01*
X288315Y97049D01*
X287049Y98315D01*
X285395Y99000D01*
D02*
G37*
G36*
X225845Y96750D02*
X224155D01*
X222593Y96103D01*
X221397Y94907D01*
X220750Y93345D01*
Y91655D01*
X221397Y90093D01*
X222593Y88897D01*
X224155Y88250D01*
X225845D01*
X227407Y88897D01*
X228603Y90093D01*
X229250Y91655D01*
Y93345D01*
X228603Y94907D01*
X227407Y96103D01*
X225845Y96750D01*
D02*
G37*
G36*
X210845D02*
X209155D01*
X207593Y96103D01*
X206397Y94907D01*
X205750Y93345D01*
Y91655D01*
X206397Y90093D01*
X207593Y88897D01*
X209155Y88250D01*
X210845D01*
X212407Y88897D01*
X213603Y90093D01*
X214250Y91655D01*
Y93345D01*
X213603Y94907D01*
X212407Y96103D01*
X210845Y96750D01*
D02*
G37*
G36*
X178845Y89250D02*
X177155D01*
X175593Y88603D01*
X174397Y87407D01*
X173750Y85845D01*
Y84155D01*
X174397Y82593D01*
X175593Y81397D01*
X177155Y80750D01*
X178845D01*
X180407Y81397D01*
X181603Y82593D01*
X182250Y84155D01*
Y85845D01*
X181603Y87407D01*
X180407Y88603D01*
X178845Y89250D01*
D02*
G37*
G36*
X141845D02*
X140155D01*
X138593Y88603D01*
X137397Y87407D01*
X136750Y85845D01*
Y84155D01*
X137397Y82593D01*
X138593Y81397D01*
X140155Y80750D01*
X141845D01*
X143407Y81397D01*
X144603Y82593D01*
X145250Y84155D01*
Y85845D01*
X144603Y87407D01*
X143407Y88603D01*
X141845Y89250D01*
D02*
G37*
G36*
X118845D02*
X117155D01*
X115593Y88603D01*
X114397Y87407D01*
X113750Y85845D01*
Y84155D01*
X114397Y82593D01*
X115593Y81397D01*
X117155Y80750D01*
X118845D01*
X120407Y81397D01*
X121603Y82593D01*
X122250Y84155D01*
Y85845D01*
X121603Y87407D01*
X120407Y88603D01*
X118845Y89250D01*
D02*
G37*
G36*
X258706Y86469D02*
X257015D01*
X255453Y85822D01*
X254258Y84626D01*
X253610Y83064D01*
Y81374D01*
X254258Y79812D01*
X255453Y78616D01*
X257015Y77969D01*
X258706D01*
X260268Y78616D01*
X261464Y79812D01*
X262111Y81374D01*
Y83064D01*
X261464Y84626D01*
X260268Y85822D01*
X258706Y86469D01*
D02*
G37*
G36*
X179845Y71250D02*
X178155D01*
X176593Y70603D01*
X175397Y69407D01*
X174750Y67845D01*
Y66155D01*
X175397Y64593D01*
X176593Y63397D01*
X178155Y62750D01*
X179845D01*
X181407Y63397D01*
X182603Y64593D01*
X183250Y66155D01*
Y67845D01*
X182603Y69407D01*
X181407Y70603D01*
X179845Y71250D01*
D02*
G37*
G36*
X93345Y66750D02*
X91655D01*
X90093Y66103D01*
X88897Y64907D01*
X88250Y63345D01*
Y61655D01*
X88897Y60093D01*
X90093Y58897D01*
X91655Y58250D01*
X93345D01*
X94907Y58897D01*
X96103Y60093D01*
X96750Y61655D01*
Y63345D01*
X96103Y64907D01*
X94907Y66103D01*
X93345Y66750D01*
D02*
G37*
G36*
X75845Y59250D02*
X74155D01*
X72593Y58603D01*
X71397Y57407D01*
X70750Y55845D01*
Y54155D01*
X71397Y52593D01*
X72593Y51397D01*
X74155Y50750D01*
X75845D01*
X77407Y51397D01*
X78603Y52593D01*
X79250Y54155D01*
Y55845D01*
X78603Y57407D01*
X77407Y58603D01*
X75845Y59250D01*
D02*
G37*
G36*
X24500Y63860D02*
X12500D01*
X10673Y63620D01*
X8970Y62915D01*
X7508Y61792D01*
X6385Y60330D01*
X5680Y58627D01*
X5440Y56800D01*
X5680Y54973D01*
X6385Y53270D01*
X7508Y51808D01*
X8970Y50686D01*
X10673Y49980D01*
X12500Y49740D01*
X24500D01*
X26327Y49980D01*
X28030Y50686D01*
X29492Y51808D01*
X30615Y53270D01*
X31320Y54973D01*
X31560Y56800D01*
X31320Y58627D01*
X30615Y60330D01*
X29492Y61792D01*
X28030Y62915D01*
X26327Y63620D01*
X24500Y63860D01*
D02*
G37*
G36*
X120845Y56750D02*
X119155D01*
X117593Y56103D01*
X116397Y54907D01*
X115750Y53345D01*
Y51655D01*
X116397Y50093D01*
X117593Y48897D01*
X119155Y48250D01*
X120845D01*
X122407Y48897D01*
X123603Y50093D01*
X124250Y51655D01*
Y53345D01*
X123603Y54907D01*
X122407Y56103D01*
X120845Y56750D01*
D02*
G37*
G36*
X108345D02*
X106655D01*
X105093Y56103D01*
X103897Y54907D01*
X103250Y53345D01*
Y51655D01*
X103897Y50093D01*
X105093Y48897D01*
X106655Y48250D01*
X108345D01*
X109907Y48897D01*
X111103Y50093D01*
X111750Y51655D01*
Y53345D01*
X111103Y54907D01*
X109907Y56103D01*
X108345Y56750D01*
D02*
G37*
G36*
X93345D02*
X91655D01*
X90093Y56103D01*
X88897Y54907D01*
X88250Y53345D01*
Y51655D01*
X88897Y50093D01*
X90093Y48897D01*
X91655Y48250D01*
X93345D01*
X94907Y48897D01*
X96103Y50093D01*
X96750Y51655D01*
Y53345D01*
X96103Y54907D01*
X94907Y56103D01*
X93345Y56750D01*
D02*
G37*
G36*
X62500Y63860D02*
X54500D01*
X52673Y63620D01*
X50970Y62915D01*
X49507Y61792D01*
X48386Y60330D01*
X47680Y58627D01*
X47440Y56800D01*
X47680Y54973D01*
X48386Y53270D01*
X49507Y51808D01*
X50970Y50686D01*
X52673Y49980D01*
X54500Y49740D01*
X62070D01*
X62366Y49095D01*
X62459Y48470D01*
X61397Y47407D01*
X60750Y45845D01*
Y44155D01*
X61397Y42593D01*
X62593Y41397D01*
X64155Y40750D01*
X65845D01*
X67407Y41397D01*
X68603Y42593D01*
X69250Y44155D01*
Y45845D01*
X68603Y47407D01*
X67407Y48603D01*
X65864Y49242D01*
X65834Y49320D01*
X65630Y50520D01*
X66030Y50686D01*
X67492Y51808D01*
X68614Y53270D01*
X69320Y54973D01*
X69560Y56800D01*
X69320Y58627D01*
X68614Y60330D01*
X67492Y61792D01*
X66030Y62915D01*
X64327Y63620D01*
X62500Y63860D01*
D02*
G37*
G36*
X171583Y36485D02*
X169217D01*
X166932Y35873D01*
X164883Y34690D01*
X163210Y33017D01*
X162027Y30968D01*
X161415Y28683D01*
Y26317D01*
X162027Y24032D01*
X163210Y21983D01*
X164883Y20310D01*
X166932Y19127D01*
X169217Y18515D01*
X171583D01*
X173868Y19127D01*
X175917Y20310D01*
X177590Y21983D01*
X178773Y24032D01*
X179385Y26317D01*
Y28683D01*
X178773Y30968D01*
X177590Y33017D01*
X175917Y34690D01*
X173868Y35873D01*
X171583Y36485D01*
D02*
G37*
G36*
X146183D02*
X143817D01*
X141532Y35873D01*
X139483Y34690D01*
X137810Y33017D01*
X136627Y30968D01*
X136015Y28683D01*
Y26317D01*
X136627Y24032D01*
X137810Y21983D01*
X139483Y20310D01*
X141532Y19127D01*
X143817Y18515D01*
X146183D01*
X148468Y19127D01*
X150517Y20310D01*
X152190Y21983D01*
X153373Y24032D01*
X153985Y26317D01*
Y28683D01*
X153373Y30968D01*
X152190Y33017D01*
X150517Y34690D01*
X148468Y35873D01*
X146183Y36485D01*
D02*
G37*
G36*
X120783D02*
X118417D01*
X116132Y35873D01*
X114083Y34690D01*
X112410Y33017D01*
X111227Y30968D01*
X110615Y28683D01*
Y26317D01*
X111227Y24032D01*
X112410Y21983D01*
X114083Y20310D01*
X116132Y19127D01*
X118417Y18515D01*
X120783D01*
X123068Y19127D01*
X125117Y20310D01*
X126790Y21983D01*
X127973Y24032D01*
X128585Y26317D01*
Y28683D01*
X127973Y30968D01*
X126790Y33017D01*
X125117Y34690D01*
X123068Y35873D01*
X120783Y36485D01*
D02*
G37*
G36*
X95383D02*
X93017D01*
X90732Y35873D01*
X88683Y34690D01*
X87010Y33017D01*
X85827Y30968D01*
X85215Y28683D01*
Y26317D01*
X85827Y24032D01*
X87010Y21983D01*
X88683Y20310D01*
X90732Y19127D01*
X93017Y18515D01*
X95383D01*
X97668Y19127D01*
X99717Y20310D01*
X101390Y21983D01*
X102573Y24032D01*
X103185Y26317D01*
Y28683D01*
X102573Y30968D01*
X101390Y33017D01*
X99717Y34690D01*
X97668Y35873D01*
X95383Y36485D01*
D02*
G37*
%LPD*%
D49*
X195800Y27500D02*
D03*
D57*
X344000Y135000D02*
D03*
X282000Y175000D02*
D03*
X255300Y67500D02*
D03*
X211000Y67000D02*
D03*
X258000Y156000D02*
D03*
X206000Y140000D02*
D03*
X178000Y118000D02*
D03*
Y125000D02*
D03*
Y132000D02*
D03*
X170000Y118000D02*
D03*
X160000D02*
D03*
X150000D02*
D03*
M02*
