M48
;Layer_Color=9474304
;FILE_FORMAT=4:4
METRIC,LZ
;TYPE=PLATED
T1F00S00C0.2000
T3F00S00C0.8890
%
T01
X00065Y00045
X00075Y00055
X000925Y000525
Y000625
X001075Y000525
X0012
X00118Y00085
X00141
X001375Y001275
X0012Y001225
X001125
X00105
Y001325
X001125
X0012
X00095
X00081Y00119
X0015Y00118
X0016
X0017
X00178
Y00125
Y00132
X00185Y001225
X00206Y0014
X0021Y001075
Y000925
X00225
Y001075
X0025Y001225
X0027Y00125
X002845Y001055
Y000945
X002955
Y001055
X0033Y00108
X003625Y0011
Y0012
Y0013
Y0014
X00344Y00135
X0041Y001375
X0047Y00115
X0048125
X004925
Y00085
X0048125
X0047
X00495Y000525
Y000425
Y000325
Y000225
X004925Y000125
X00485Y000075
X00475Y00005
X00465
X00455
X00445
X00435
X00425
X00415
X00405
X00395
X00385
X00375
X00363
X003625Y000175
Y0003
Y0004
Y0005
Y0006
Y0007
Y0008
X00385Y00062
Y00049
X003325Y00045
Y00055
X003225
X003125
X002825Y00055
Y000675
X002553
X002575Y00055
X002475
Y00045
Y00035
Y00025
Y00015
Y00005
X002575
X002675
X002775
X002875
X002975
X003075
X0032
X003325
Y00015
Y00025
Y00035
X003225Y000175
X002625Y00035
X002675Y00055
X00257861Y00082219
X0026Y0009806
X00211Y00067
X00179
X00178Y00085
X001675Y001575
X00215
X00225Y00145
X00258Y00156
X0026Y00175
X0027
Y00185
X002593
X00282Y00175
X002995Y001735
X003175Y0017
X00316Y00157
X00332
X003625Y0016
Y0017
Y0018
Y00195
X003725
X003825
X003925
X004025
X004125
X004225
X004325
X004425
X004525
X004625
X004725
X00485Y00194
X004925Y001875
X00495Y001775
Y001675
Y0016
Y0015
X003625
X00279Y00147
X0014Y00185
X00095Y00165
X00075Y00145
T03
X000942Y000275
X001196
X00145
X001704
X001958
M30
